<?xml version="1.0" encoding="UTF-8"?>
<svg xmlns="http://www.w3.org/2000/svg" xmlns:xlink="http://www.w3.org/1999/xlink" width="0" height="0">
<symbol id="svg-close_eye" width="24" height="24" viewBox="0 0 24 24" fill="none">
<path d="M8.48847 13.4788L9.61152 12.3558C9.441 11.466 9.67498 10.707 10.3134 10.0788C10.9519 9.45062 11.7179 9.2096 12.6115 9.35575L13.7346 8.2327C13.5025 8.125 13.2637 8.04743 13.0182 8C12.7727 7.95257 12.5205 7.92885 12.2615 7.92885C11.1269 7.92885 10.1638 8.32468 9.37212 9.11635C8.58045 9.90802 8.18462 10.8711 8.18462 12.0057C8.18462 12.2647 8.20674 12.517 8.25097 12.7625C8.29521 13.008 8.37437 13.2467 8.48847 13.4788ZM5.3077 16.5904L6.41152 15.5557C5.77819 15.0724 5.21152 14.5349 4.71152 13.9432C4.21152 13.3516 3.79486 12.7057 3.46152 12.0057C4.29486 10.3224 5.49902 8.98492 7.07402 7.99325C8.64902 7.00158 10.3782 6.50575 12.2615 6.50575C12.7449 6.50575 13.2157 6.53908 13.674 6.60575C14.1324 6.67242 14.5949 6.77242 15.0615 6.90575L16.2269 5.7404C15.591 5.48912 14.9426 5.30386 14.2817 5.18463C13.6208 5.06539 12.9474 5.00577 12.2615 5.00577C10.1128 5.00577 8.13911 5.56411 6.3404 6.68077C4.54168 7.79744 3.15835 9.30833 2.1904 11.2134C2.12373 11.3404 2.07534 11.4682 2.04522 11.5971C2.01509 11.7259 2.00002 11.8622 2.00002 12.0057C2.00002 12.1493 2.01252 12.2856 2.03752 12.4144C2.06252 12.5433 2.10835 12.6711 2.17502 12.798C2.52887 13.5506 2.97311 14.2455 3.50772 14.8826C4.04232 15.5198 4.64231 16.0891 5.3077 16.5904ZM12.2615 19.0057C14.3666 19.0057 16.2961 18.4432 18.0499 17.3182C19.8038 16.1932 21.198 14.7115 22.2326 12.873C22.316 12.7461 22.3769 12.6083 22.4153 12.4596C22.4538 12.3109 22.473 12.1596 22.473 12.0057C22.473 11.8519 22.4564 11.7032 22.423 11.5596C22.3897 11.416 22.3314 11.2756 22.248 11.1384C21.8762 10.459 21.4551 9.81185 20.9845 9.1971C20.514 8.58235 19.973 8.03139 19.3615 7.54422L21.6192 5.27112C21.7576 5.12241 21.8259 4.94581 21.824 4.74132C21.8221 4.53684 21.7487 4.36217 21.6038 4.2173C21.4589 4.07243 21.2833 4 21.0769 4C20.8705 4 20.6948 4.07243 20.55 4.2173L3.97307 20.7942C3.83462 20.9326 3.76123 21.1041 3.7529 21.3086C3.74456 21.5131 3.81795 21.6929 3.97307 21.848C4.11794 21.9929 4.29358 22.0653 4.5 22.0653C4.7064 22.0653 4.88203 21.9929 5.0269 21.848L8.54612 18.3595C9.13587 18.5878 9.74196 18.7525 10.3644 18.8538C10.9868 18.9551 11.6192 19.0057 12.2615 19.0057ZM18.3076 8.59802C18.8935 9.05059 19.4202 9.56246 19.8875 10.1336C20.3548 10.7048 20.7461 11.3288 21.0615 12.0057C20.2282 13.6891 19.024 15.0266 17.449 16.0182C15.874 17.0099 14.1449 17.5057 12.2615 17.5057C11.832 17.5057 11.4093 17.4769 10.9932 17.4192C10.5772 17.3615 10.164 17.2724 9.7538 17.1519L11.0192 15.8557C11.2218 15.9442 11.424 16.0041 11.6259 16.0355C11.8279 16.0669 12.0397 16.0826 12.2615 16.0826C13.3961 16.0826 14.3593 15.6868 15.1509 14.8951C15.9426 14.1035 16.3384 13.1403 16.3384 12.0057C16.3384 11.7839 16.3211 11.5721 16.2865 11.3702C16.2519 11.1682 16.1935 10.966 16.1115 10.7634L18.3076 8.59802Z" fill="#1C1B1F"/>
</symbol>

<symbol id="svg-closer" width="14" height="14" viewBox="0 0 14 14" fill="none">
<path fill-rule="evenodd" clip-rule="evenodd" d="M8.37357 7L14 1.37357L12.6264 8.33593e-07L7 5.62643L1.37358 1.75719e-06L1.50163e-07 1.37357L5.62643 7L1.07376e-06 12.6264L1.37358 14L7 8.37357L12.6264 14L14 12.6264L8.37357 7Z" fill="#121212"/>
</symbol>

<symbol id="svg-ecolist" width="17" height="17" viewBox="0 0 17 17" fill="none">
<path d="M2.4 14.6001C1.65 13.8501 1.0625 12.9835 0.6375 12.0001C0.2125 11.0168 0 10.0001 0 8.95012C0 7.90012 0.2 6.86262 0.6 5.83762C1 4.81262 1.65 3.85012 2.55 2.95012C3.13333 2.36679 3.85417 1.86679 4.7125 1.45012C5.57083 1.03345 6.5875 0.704287 7.7625 0.46262C8.9375 0.220954 10.2792 0.0751202 11.7875 0.0251202C13.2958 -0.0248798 14.9833 0.0334535 16.85 0.20012C16.9833 1.96679 17.025 3.59179 16.975 5.07512C16.925 6.55845 16.7875 7.89595 16.5625 9.08762C16.3375 10.2793 16.0208 11.321 15.6125 12.2126C15.2042 13.1043 14.7 13.8501 14.1 14.4501C13.2167 15.3335 12.2792 15.9793 11.2875 16.3876C10.2958 16.796 9.28333 17.0001 8.25 17.0001C7.16667 17.0001 6.10833 16.7876 5.075 16.3626C4.04167 15.9376 3.15 15.3501 2.4 14.6001ZM5.2 14.2001C5.68333 14.4835 6.17917 14.6876 6.6875 14.8126C7.19583 14.9376 7.71667 15.0001 8.25 15.0001C9.01667 15.0001 9.775 14.846 10.525 14.5376C11.275 14.2293 11.9917 13.7335 12.675 13.0501C12.975 12.7501 13.2792 12.3293 13.5875 11.7876C13.8958 11.246 14.1625 10.5376 14.3875 9.66262C14.6125 8.78762 14.7833 7.72929 14.9 6.48762C15.0167 5.24595 15.0333 3.76679 14.95 2.05012C14.1333 2.01679 13.2125 2.00429 12.1875 2.01262C11.1625 2.02095 10.1417 2.10012 9.125 2.25012C8.10833 2.40012 7.14167 2.64179 6.225 2.97512C5.30833 3.30845 4.55833 3.76679 3.975 4.35012C3.225 5.10012 2.70833 5.84179 2.425 6.57512C2.14167 7.30845 2 8.01679 2 8.70012C2 9.68345 2.1875 10.546 2.5625 11.2876C2.9375 12.0293 3.26667 12.5501 3.55 12.8501C4.25 11.5168 5.175 10.2376 6.325 9.01262C7.475 7.78762 8.81667 6.78345 10.35 6.00012C9.15 7.05012 8.10417 8.23762 7.2125 9.56262C6.32083 10.8876 5.65 12.4335 5.2 14.2001Z" fill="#2A8927"/>
</symbol>

<symbol id="svg-facebook" width="20" height="21" viewBox="0 0 20 21" fill="none">
<path d="M20 10.9844C20 5.46438 15.52 0.984375 10 0.984375C4.48 0.984375 0 5.46438 0 10.9844C0 15.8244 3.44 19.8544 8 20.7844V13.9844H6V10.9844H8V8.48438C8 6.55438 9.57 4.98438 11.5 4.98438H14V7.98438H12C11.45 7.98438 11 8.43437 11 8.98438V10.9844H14V13.9844H11V20.9344C16.05 20.4344 20 16.1744 20 10.9844Z" fill="#2A8927"/>
</symbol>

<symbol id="svg-filter" width="15" height="15" viewBox="0 0 15 15" fill="none">
<path d="M6.65136 15C6.40008 15 6.18982 14.9153 6.02058 14.7461C5.85135 14.5769 5.76673 14.3666 5.76673 14.1153V8.32688L0.168684 1.21538C-0.0236161 0.95896 -0.0514992 0.692293 0.0850341 0.415376C0.221567 0.13846 0.452009 0 0.776359 0H13.7571C14.0814 0 14.3119 0.13846 14.4484 0.415376C14.5849 0.692293 14.557 0.95896 14.3647 1.21538L8.76668 8.32688V14.1153C8.76668 14.3666 8.68207 14.5769 8.51283 14.7461C8.3436 14.9153 8.13334 15 7.88206 15H6.65136ZM7.26671 7.79998L12.2167 1.49998H2.31671L7.26671 7.79998Z" fill="#F8F8F8"/>
</symbol>

<symbol id="svg-flower" width="20" height="20" viewBox="0 0 20 20" fill="none">
<path d="M10.05 20C9.09997 20 8.2583 19.7 7.52497 19.1C6.79163 18.5 6.3333 17.7333 6.14997 16.8C5.26663 17.0833 4.37497 17.0667 3.47497 16.75C2.57497 16.4333 1.8833 15.8833 1.39997 15.1C0.899967 14.3 0.716633 13.4125 0.849967 12.4375C0.9833 11.4625 1.41663 10.65 2.14997 10C1.44997 9.36667 1.02913 8.58333 0.887467 7.65C0.7458 6.71667 0.899967 5.85 1.34997 5.05C1.79997 4.25 2.47913 3.67083 3.38747 3.3125C4.2958 2.95417 5.19997 2.91667 6.09997 3.2C6.2833 2.26667 6.74163 1.5 7.47497 0.9C8.2083 0.3 9.04997 0 9.99997 0C10.95 0 11.7916 0.3 12.525 0.9C13.2583 1.5 13.7166 2.26667 13.9 3.2C14.8333 2.91667 15.7375 2.94167 16.6125 3.275C17.4875 3.60833 18.1666 4.2 18.65 5.05C19.1 5.88333 19.2625 6.75417 19.1375 7.6625C19.0125 8.57083 18.5833 9.35 17.85 10C18.5833 10.65 19.0208 11.4542 19.1625 12.4125C19.3041 13.3708 19.15 14.2667 18.7 15.1C18.2166 15.95 17.5375 16.5167 16.6625 16.8C15.7875 17.0833 14.8833 17.0833 13.95 16.8C13.7666 17.7333 13.3083 18.5 12.575 19.1C11.8416 19.7 11 20 10.05 20ZM10.05 18C10.8333 18 11.4208 17.6625 11.8125 16.9875C12.2041 16.3125 12.2 15.65 11.8 15L11.1 13.85C10.9166 13.9 10.7416 13.9375 10.575 13.9625C10.4083 13.9875 10.2333 14 10.05 14C9.8833 14 9.71247 13.9875 9.53747 13.9625C9.36247 13.9375 9.1833 13.9 8.99997 13.85L8.29997 15C7.89997 15.65 7.8958 16.3125 8.28747 16.9875C8.67913 17.6625 9.26663 18 10.05 18ZM3.04997 14C3.44997 14.6833 4.03747 15.025 4.81247 15.025C5.58747 15.025 6.16663 14.6833 6.54997 14L7.19997 12.85C7.06663 12.7167 6.94163 12.575 6.82497 12.425C6.7083 12.275 6.6083 12.1167 6.52497 11.95C6.44163 11.8 6.36663 11.6458 6.29997 11.4875C6.2333 11.3292 6.17497 11.1667 6.12497 11H4.79997C4.01663 11 3.4333 11.3292 3.04997 11.9875C2.66663 12.6458 2.66663 13.3167 3.04997 14ZM13.45 14C13.8333 14.6833 14.4125 15.025 15.1875 15.025C15.9625 15.025 16.55 14.6833 16.95 14C17.3333 13.3167 17.3333 12.6458 16.95 11.9875C16.5666 11.3292 15.9833 11 15.2 11H13.875C13.8416 11.1667 13.7875 11.3292 13.7125 11.4875C13.6375 11.6458 13.5583 11.8 13.475 11.95C13.3916 12.1167 13.2916 12.275 13.175 12.425C13.0583 12.575 12.9333 12.7167 12.8 12.85L13.45 14ZM6.12497 9C6.17497 8.81667 6.23747 8.6375 6.31247 8.4625C6.38747 8.2875 6.46663 8.125 6.54997 7.975C6.6333 7.825 6.72913 7.68333 6.83747 7.55C6.9458 7.41667 7.06663 7.28333 7.19997 7.15L6.54997 6C6.16663 5.31667 5.58747 4.975 4.81247 4.975C4.03747 4.975 3.44997 5.31667 3.04997 6C2.66663 6.68333 2.66663 7.35417 3.04997 8.0125C3.4333 8.67083 4.01663 9 4.79997 9H6.12497ZM15.2 9C15.9833 9 16.5666 8.67083 16.95 8.0125C17.3333 7.35417 17.3333 6.68333 16.95 6C16.55 5.31667 15.9625 4.975 15.1875 4.975C14.4125 4.975 13.8333 5.31667 13.45 6L12.8 7.15C12.9333 7.28333 13.0541 7.41667 13.1625 7.55C13.2708 7.68333 13.3666 7.825 13.45 7.975C13.5333 8.125 13.6125 8.2875 13.6875 8.4625C13.7625 8.6375 13.825 8.81667 13.875 9H15.2ZM8.92497 6.15C9.1083 6.1 9.28747 6.0625 9.46247 6.0375C9.63747 6.0125 9.81663 6 9.99997 6C10.1833 6 10.3625 6.0125 10.5375 6.0375C10.7125 6.0625 10.8916 6.1 11.075 6.15L11.75 5C12.1333 4.35 12.1333 3.6875 11.75 3.0125C11.3666 2.3375 10.7833 2 9.99997 2C9.21663 2 8.6333 2.33333 8.24997 3C7.86663 3.66667 7.86663 4.33333 8.24997 5L8.92497 6.15ZM9.99997 12C10.55 12 11.0208 11.8042 11.4125 11.4125C11.8041 11.0208 12 10.55 12 10C12 9.45 11.8041 8.97917 11.4125 8.5875C11.0208 8.19583 10.55 8 9.99997 8C9.44997 8 8.97913 8.19583 8.58747 8.5875C8.1958 8.97917 7.99997 9.45 7.99997 10C7.99997 10.55 8.1958 11.0208 8.58747 11.4125C8.97913 11.8042 9.44997 12 9.99997 12Z" fill="#2A8927"/>
</symbol>

<symbol id="svg-grass" width="20" height="16" viewBox="0 0 20 16" fill="none">
<path d="M0 16V14H5.75C5.38333 12.5833 4.6875 11.3625 3.6625 10.3375C2.6375 9.3125 1.41667 8.61667 0 8.25C0.333333 8.16667 0.6625 8.10417 0.9875 8.0625C1.3125 8.02083 1.65 8 2 8C4.23333 8 6.125 8.775 7.675 10.325C9.225 11.875 10 13.7667 10 16H0ZM12 16C12 15.3 11.925 14.6042 11.775 13.9125C11.625 13.2208 11.4083 12.5583 11.125 11.925C11.825 10.7417 12.7792 9.79167 13.9875 9.075C15.1958 8.35833 16.5333 8 18 8C18.35 8 18.6875 8.02083 19.0125 8.0625C19.3375 8.10417 19.6667 8.16667 20 8.25C18.5833 8.61667 17.3667 9.3125 16.35 10.3375C15.3333 11.3625 14.6333 12.5833 14.25 14H20V16H12ZM10 10.025C10 8.94167 10.2 7.925 10.6 6.975C11 6.025 11.55 5.1875 12.25 4.4625C12.95 3.7375 13.7708 3.15833 14.7125 2.725C15.6542 2.29167 16.6583 2.05833 17.725 2.025C16.7917 2.60833 15.975 3.325 15.275 4.175C14.575 5.025 14.0333 5.975 13.65 7.025C12.9167 7.375 12.2458 7.80417 11.6375 8.3125C11.0292 8.82083 10.4833 9.39167 10 10.025ZM8.175 8.15C7.975 8 7.775 7.85833 7.575 7.725C7.375 7.59167 7.16667 7.45833 6.95 7.325C6.95 7.225 6.95833 7.12083 6.975 7.0125C6.99167 6.90417 7 6.8 7 6.7C7 5.43333 6.8 4.23333 6.4 3.1C6 1.96667 5.43333 0.933333 4.7 0C5.8 0.45 6.75417 1.09583 7.5625 1.9375C8.37083 2.77917 8.99167 3.75 9.425 4.85C9.125 5.35 8.86667 5.87917 8.65 6.4375C8.43333 6.99583 8.275 7.56667 8.175 8.15Z" fill="#2A8927"/>
</symbol>

<symbol id="svg-hand_heart" width="21" height="21" viewBox="0 0 21 21" fill="none">
<path d="M15 11L10.85 6.95C10.3333 6.45 9.89583 5.89583 9.5375 5.2875C9.17917 4.67917 9 4.01667 9 3.3C9 2.38333 9.32083 1.60417 9.9625 0.9625C10.6042 0.320833 11.3833 0 12.3 0C12.8333 0 13.3333 0.1125 13.8 0.3375C14.2667 0.5625 14.6667 0.866667 15 1.25C15.3333 0.866667 15.7333 0.5625 16.2 0.3375C16.6667 0.1125 17.1667 0 17.7 0C18.6167 0 19.3958 0.320833 20.0375 0.9625C20.6792 1.60417 21 2.38333 21 3.3C21 4.01667 20.825 4.67917 20.475 5.2875C20.125 5.89583 19.6917 6.45 19.175 6.95L15 11ZM15 8.2L17.725 5.525C18.0417 5.20833 18.3333 4.87083 18.6 4.5125C18.8667 4.15417 19 3.75 19 3.3C19 2.93333 18.875 2.625 18.625 2.375C18.375 2.125 18.0667 2 17.7 2C17.4667 2 17.2458 2.04583 17.0375 2.1375C16.8292 2.22917 16.65 2.36667 16.5 2.55L15 4.35L13.5 2.55C13.35 2.36667 13.1708 2.22917 12.9625 2.1375C12.7542 2.04583 12.5333 2 12.3 2C11.9333 2 11.625 2.125 11.375 2.375C11.125 2.625 11 2.93333 11 3.3C11 3.75 11.1333 4.15417 11.4 4.5125C11.6667 4.87083 11.9583 5.20833 12.275 5.525L15 8.2ZM6 16.5L12.95 18.4L18.9 16.55C18.8167 16.4 18.6958 16.2708 18.5375 16.1625C18.3792 16.0542 18.2 16 18 16H12.95C12.5 16 12.1417 15.9833 11.875 15.95C11.6083 15.9167 11.3333 15.85 11.05 15.75L8.725 14.975L9.275 13.025L11.3 13.7C11.5833 13.7833 11.9167 13.85 12.3 13.9C12.6833 13.95 13.25 13.9833 14 14C14 13.8167 13.9458 13.6417 13.8375 13.475C13.7292 13.3083 13.6 13.2 13.45 13.15L7.6 11H6V16.5ZM0 20V9H7.6C7.71667 9 7.83333 9.0125 7.95 9.0375C8.06667 9.0625 8.175 9.09167 8.275 9.125L14.15 11.3C14.7 11.5 15.1458 11.85 15.4875 12.35C15.8292 12.85 16 13.4 16 14H18C18.8333 14 19.5417 14.275 20.125 14.825C20.7083 15.375 21 16.1 21 17V18L13 20.5L6 18.55V20H0ZM2 18H4V11H2V18Z" fill="#2A8927"/>
</symbol>

<symbol id="svg-heart-red" width="30" height="26" viewBox="0 0 30 26" fill="none">
<path d="M9.02083 1.33338C4.97083 1.33338 1.6875 4.61671 1.6875 8.66671C1.6875 16 10.3542 22.6667 15.0208 24.2174C19.6875 22.6667 28.3542 16 28.3542 8.66671C28.3542 4.61671 25.0708 1.33338 21.0208 1.33338C18.5408 1.33338 16.3475 2.56471 15.0208 4.44938C14.3446 3.48618 13.4463 2.7001 12.4019 2.1577C11.3574 1.6153 10.1977 1.33254 9.02083 1.33338Z" stroke="#FF4444" stroke-width="2" stroke-linecap="round" stroke-linejoin="round"/>
</symbol>

<symbol id="svg-heart-red_active" width="30" height="26" viewBox="0 0 30 26" fill="none">
<path d="M9.02083 1.33338C4.97083 1.33338 1.6875 4.61671 1.6875 8.66671C1.6875 16 10.3542 22.6667 15.0208 24.2174C19.6875 22.6667 28.3542 16 28.3542 8.66671C28.3542 4.61671 25.0708 1.33338 21.0208 1.33338C18.5408 1.33338 16.3475 2.56471 15.0208 4.44938C14.3446 3.48618 13.4463 2.7001 12.4019 2.1577C11.3574 1.6153 10.1977 1.33254 9.02083 1.33338Z" fill="#FF4444" stroke="#FF4444" stroke-width="2" stroke-linecap="round" stroke-linejoin="round"/>
</symbol>

<symbol id="svg-like" width="24" height="24" viewBox="0 0 24 24" fill="none">
<path fill-rule="evenodd" clip-rule="evenodd" d="M11.9928 3.73307C9.65285 1.67128 6.19239 1.24936 3.50509 3.56443C0.598301 6.06858 0.175971 10.286 2.47459 13.2683C3.34712 14.4003 5.05011 16.101 6.68672 17.6585C8.34249 19.2343 9.99445 20.7233 10.8091 21.4508L10.8246 21.4646C10.9012 21.5331 10.9966 21.6183 11.088 21.6877C11.1974 21.7708 11.3545 21.874 11.5643 21.9371C11.8432 22.021 12.143 22.021 12.422 21.9371C12.6318 21.874 12.7889 21.7708 12.8983 21.6877C12.9897 21.6183 13.0851 21.5331 13.1617 21.4646L13.1772 21.4508C13.9918 20.7233 15.6438 19.2343 17.2996 17.6585C18.9362 16.101 20.6392 14.4003 21.5117 13.2683C23.8015 10.2974 23.4444 6.04751 20.4708 3.55559C17.7536 1.2785 14.33 1.67049 11.9928 3.73307ZM11.2332 5.819C9.52816 3.80916 6.81788 3.36288 4.80429 5.09755C2.70097 6.90952 2.41795 9.90848 4.05379 12.0309C4.81689 13.0209 6.40668 14.6191 8.05953 16.1921C9.60258 17.6606 11.1461 19.0562 11.9931 19.8143C12.8402 19.0562 14.3837 17.6606 15.9268 16.1921C17.5796 14.6191 19.1694 13.0209 19.9325 12.0309C21.5772 9.89702 21.315 6.88519 19.1924 5.10639C17.1255 3.37426 14.4506 3.81805 12.7531 5.819C12.5631 6.04295 12.2854 6.17188 11.9931 6.17188C11.7009 6.17188 11.4232 6.04295 11.2332 5.819Z" fill="black"/>
</symbol>

<symbol id="svg-mail" width="20" height="16" viewBox="0 0 20 16" fill="none">
<path d="M2.3077 15.5C1.80257 15.5 1.375 15.325 1.025 14.975C0.675 14.625 0.5 14.1974 0.5 13.6923V2.3077C0.5 1.80257 0.675 1.375 1.025 1.025C1.375 0.675 1.80257 0.5 2.3077 0.5H17.6923C18.1974 0.5 18.625 0.675 18.975 1.025C19.325 1.375 19.5 1.80257 19.5 2.3077V13.6923C19.5 14.1974 19.325 14.625 18.975 14.975C18.625 15.325 18.1974 15.5 17.6923 15.5H2.3077ZM18 3.44225L10.4865 8.25188C10.4096 8.29546 10.3301 8.32975 10.2481 8.35475C10.166 8.37975 10.0833 8.39225 9.99998 8.39225C9.91664 8.39225 9.83395 8.37975 9.7519 8.35475C9.66985 8.32975 9.59037 8.29546 9.51345 8.25188L1.99998 3.44225V13.6923C1.99998 13.782 2.02883 13.8557 2.08653 13.9134C2.14423 13.9711 2.21795 14 2.3077 14H17.6923C17.782 14 17.8557 13.9711 17.9134 13.9134C17.9711 13.8557 18 13.782 18 13.6923V3.44225ZM9.99998 6.99998L17.8461 1.99998H2.15383L9.99998 6.99998ZM1.99998 3.673V2.52978V2.55957V2.52785V3.673Z" fill="#1C1B1F"/>
</symbol>

<symbol id="svg-map" width="18" height="18" viewBox="0 0 18 18" fill="none">
<path d="M12 18L6 15.9L1.35 17.7C1.01667 17.8333 0.708333 17.7958 0.425 17.5875C0.141667 17.3792 0 17.1 0 16.75V2.75C0 2.53333 0.0625 2.34167 0.1875 2.175C0.3125 2.00833 0.483333 1.88333 0.7 1.8L6 0L12 2.1L16.65 0.3C16.9833 0.166667 17.2917 0.204167 17.575 0.4125C17.8583 0.620833 18 0.9 18 1.25V15.25C18 15.4667 17.9375 15.6583 17.8125 15.825C17.6875 15.9917 17.5167 16.1167 17.3 16.2L12 18ZM11 15.55V3.85L7 2.45V14.15L11 15.55ZM13 15.55L16 14.55V2.7L13 3.85V15.55ZM2 15.3L5 14.15V2.45L2 3.45V15.3Z" fill="#2A8927"/>
</symbol>

<symbol id="svg-mark" width="16" height="20" viewBox="0 0 16 20" fill="none">
<path d="M8.00165 9.86535C8.49924 9.86535 8.92463 9.68818 9.27783 9.33385C9.63103 8.97952 9.80763 8.55356 9.80763 8.05598C9.80763 7.55839 9.63046 7.133 9.27613 6.7798C8.9218 6.4266 8.49584 6.25 7.99825 6.25C7.50067 6.25 7.07528 6.42717 6.72208 6.7815C6.36888 7.13583 6.19228 7.56179 6.19228 8.05938C6.19228 8.55696 6.36945 8.98235 6.72378 9.33555C7.07811 9.68875 7.50407 9.86535 8.00165 9.86535ZM7.99995 17.5135C9.95635 15.7622 11.4535 14.0824 12.4913 12.474C13.5291 10.8657 14.048 9.45703 14.048 8.24805C14.048 6.42498 13.4689 4.92627 12.3105 3.7519C11.1522 2.57753 9.71534 1.99035 7.99995 1.99035C6.28457 1.99035 4.84771 2.57753 3.68938 3.7519C2.53105 4.92627 1.95188 6.42498 1.95188 8.24805C1.95188 9.45703 2.47079 10.8657 3.5086 12.474C4.54644 14.0824 6.04355 15.7622 7.99995 17.5135ZM7.99995 19.5096C5.4833 17.3288 3.59613 15.2993 2.33843 13.4211C1.08075 11.5429 0.451904 9.81857 0.451904 8.24805C0.451904 5.94038 1.19838 4.07213 2.69133 2.64328C4.18426 1.21443 5.9538 0.5 7.99995 0.5C10.0461 0.5 11.8156 1.21443 13.3086 2.64328C14.8015 4.07213 15.548 5.94038 15.548 8.24805C15.548 9.81857 14.9192 11.5429 13.6615 13.4211C12.4038 15.2993 10.5166 17.3288 7.99995 19.5096Z" fill="#1C1B1F"/>
</symbol>

<symbol id="svg-menu" fill="none">
<path d="M0.5 1C0.5 0.447715 0.5 0 0.5 0H18.5C18.5 0 18.5 0.447715 18.5 1C18.5 1.55228 18.5 2 18.5 2H0.5C0.5 2 0.5 1.55228 0.5 1Z" fill="#121212"/>
<path d="M0.5 8C0.5 7.44772 0.5 7 0.5 7H18.5C18.5 7 18.5 7.44772 18.5 8C18.5 8.55228 18.5 9 18.5 9H0.5C0.5 9 0.5 8.55228 0.5 8Z" fill="#121212"/>
<path d="M0.500782 15C0.500782 14.4477 0.5 14 0.5 14H18.5C18.5 14 18.5 14.4477 18.5 15C18.5 15.5523 18.5 16 18.5 16H0.5C0.5 16 0.500782 15.5523 0.500782 15Z" fill="#121212"/>
</symbol>

<symbol id="svg-mini-closer" width="14" height="14" viewBox="0 0 14 14" fill="none">
<path fill-rule="evenodd" clip-rule="evenodd" d="M8.37357 7L14 1.37357L12.6264 8.33593e-07L7 5.62643L1.37358 1.75719e-06L1.50163e-07 1.37357L5.62643 7L1.07376e-06 12.6264L1.37358 14L7 8.37357L12.6264 14L14 12.6264L8.37357 7Z" fill="#121212"/>
</symbol>

<symbol id="svg-mini-search" width="18" height="18" viewBox="0 0 18 18" fill="none">
<path d="M16.6 18L10.3 11.7C9.8 12.1 9.225 12.4167 8.575 12.65C7.925 12.8833 7.23333 13 6.5 13C4.68333 13 3.14583 12.3708 1.8875 11.1125C0.629167 9.85417 0 8.31667 0 6.5C0 4.68333 0.629167 3.14583 1.8875 1.8875C3.14583 0.629167 4.68333 0 6.5 0C8.31667 0 9.85417 0.629167 11.1125 1.8875C12.3708 3.14583 13 4.68333 13 6.5C13 7.23333 12.8833 7.925 12.65 8.575C12.4167 9.225 12.1 9.8 11.7 10.3L18 16.6L16.6 18ZM6.5 11C7.75 11 8.8125 10.5625 9.6875 9.6875C10.5625 8.8125 11 7.75 11 6.5C11 5.25 10.5625 4.1875 9.6875 3.3125C8.8125 2.4375 7.75 2 6.5 2C5.25 2 4.1875 2.4375 3.3125 3.3125C2.4375 4.1875 2 5.25 2 6.5C2 7.75 2.4375 8.8125 3.3125 9.6875C4.1875 10.5625 5.25 11 6.5 11Z" fill="#2A8927"/>
</symbol>

<symbol id="svg-open_eye" width="25" height="24" viewBox="0 0 25 24" fill="none">
<path d="M13.1984 16.0769C14.3315 16.0769 15.2939 15.6803 16.0855 14.8871C16.8772 14.0939 17.273 13.1308 17.273 11.9977C17.273 10.8646 16.8764 9.90224 16.0833 9.11058C15.2901 8.31891 14.327 7.92308 13.1939 7.92308C12.0608 7.92308 11.0984 8.31966 10.3067 9.11282C9.51506 9.90601 9.11923 10.8692 9.11923 12.0023C9.11923 13.1353 9.51581 14.0977 10.309 14.8894C11.1022 15.681 12.0653 16.0769 13.1984 16.0769ZM13.1961 14.7C12.4461 14.7 11.8086 14.4375 11.2836 13.9125C10.7586 13.3875 10.4961 12.75 10.4961 12C10.4961 11.25 10.7586 10.6125 11.2836 10.0875C11.8086 9.56248 12.4461 9.29998 13.1961 9.29998C13.9461 9.29998 14.5836 9.56248 15.1086 10.0875C15.6336 10.6125 15.8961 11.25 15.8961 12C15.8961 12.75 15.6336 13.3875 15.1086 13.9125C14.5836 14.4375 13.9461 14.7 13.1961 14.7ZM13.1961 19C11.091 19 9.1657 18.4384 7.4202 17.3153C5.67468 16.1923 4.28142 14.7147 3.2404 12.8827C3.15707 12.7391 3.09617 12.5944 3.0577 12.4485C3.01923 12.3027 3 12.153 3 11.9995C3 11.846 3.01923 11.6965 3.0577 11.551C3.09617 11.4054 3.15707 11.2609 3.2404 11.1173C4.28142 9.28525 5.67468 7.80769 7.4202 6.68463C9.1657 5.56154 11.091 5 13.1961 5C15.3012 5 17.2265 5.56154 18.972 6.68463C20.7176 7.80769 22.1108 9.28525 23.1518 11.1173C23.2352 11.2609 23.2961 11.4056 23.3345 11.5514C23.373 11.6973 23.3922 11.847 23.3922 12.0005C23.3922 12.154 23.373 12.3035 23.3345 12.449C23.2961 12.5945 23.2352 12.7391 23.1518 12.8827C22.1108 14.7147 20.7176 16.1923 18.972 17.3153C17.2265 18.4384 15.3012 19 13.1961 19ZM13.1961 17.5C15.0795 17.5 16.8086 17.0041 18.3836 16.0125C19.9586 15.0208 21.1628 13.6833 21.9961 12C21.1628 10.3166 19.9586 8.97914 18.3836 7.98748C16.8086 6.99581 15.0795 6.49998 13.1961 6.49998C11.3128 6.49998 9.58362 6.99581 8.00863 7.98748C6.43362 8.97914 5.22946 10.3166 4.39613 12C5.22946 13.6833 6.43362 15.0208 8.00863 16.0125C9.58362 17.0041 11.3128 17.5 13.1961 17.5Z" fill="#1C1B1F"/>
</symbol>

<symbol id="svg-person" width="24" height="24" viewBox="0 0 24 24" fill="none">
<path fill-rule="evenodd" clip-rule="evenodd" d="M12 4C10.0375 4 8.44661 5.567 8.44661 7.5C8.44661 9.433 10.0375 11 12 11C13.9625 11 15.5534 9.433 15.5534 7.5C15.5534 5.567 13.9625 4 12 4ZM6.41611 7.5C6.41611 4.46243 8.9161 2 12 2C15.0839 2 17.5839 4.46243 17.5839 7.5C17.5839 10.5376 15.0839 13 12 13C8.9161 13 6.41611 10.5376 6.41611 7.5ZM12 16C9.11766 16 6.54859 17.3693 4.90728 19.5088C4.80688 19.6397 4.73004 19.74 4.66612 19.8281C4.61759 19.895 4.58447 19.9442 4.56141 19.9814C4.71231 19.9984 4.92731 20 5.32698 20H18.673C19.0727 20 19.2877 19.9984 19.4386 19.9814C19.4155 19.9442 19.3824 19.895 19.3339 19.8281C19.27 19.74 19.1931 19.6397 19.0927 19.5088C17.4514 17.3693 14.8823 16 12 16ZM3.28725 18.3031C5.2903 15.692 8.44547 14 12 14C15.5545 14 18.7097 15.692 20.7128 18.3031C20.7218 18.3149 20.7309 18.3268 20.74 18.3387C20.9123 18.563 21.0969 18.8035 21.2289 19.0356C21.3886 19.3165 21.507 19.6414 21.4997 20.0366C21.4938 20.3542 21.3961 20.6516 21.2774 20.8864C21.1588 21.1212 20.9768 21.3772 20.723 21.5734C20.3846 21.835 20.0162 21.9276 19.6889 21.9662C19.4017 22.0001 19.0614 22.0001 18.7193 22C18.7039 22 18.6884 22 18.673 22H5.32698C5.31156 22 5.29613 22 5.28071 22C4.93858 22.0001 4.59828 22.0001 4.31113 21.9662C3.98382 21.9276 3.61538 21.835 3.27697 21.5734C3.02321 21.3772 2.84125 21.1212 2.72259 20.8864C2.60393 20.6516 2.50622 20.3542 2.50032 20.0366C2.49299 19.6414 2.61137 19.3165 2.77111 19.0356C2.90307 18.8035 3.08774 18.563 3.25996 18.3387C3.26909 18.3268 3.27819 18.3149 3.28725 18.3031Z" fill="black"/>
</symbol>

<symbol id="svg-phone" width="18" height="18" viewBox="0 0 18 18" fill="none">
<path d="M16.4403 17.5C14.5557 17.5 12.6625 17.0618 10.7606 16.1855C8.85863 15.3092 7.11121 14.073 5.51828 12.4769C3.92533 10.8807 2.69071 9.1333 1.81442 7.2346C0.938142 5.33588 0.5 3.44423 0.5 1.55963C0.5 1.25688 0.6 1.00458 0.8 0.802751C1 0.600918 1.25 0.5 1.55 0.5H4.8115C5.06407 0.5 5.28683 0.582375 5.47977 0.747125C5.67272 0.911875 5.79548 1.1154 5.84803 1.3577L6.4211 4.29998C6.46085 4.57306 6.45252 4.80768 6.3961 5.00383C6.3397 5.19998 6.23842 5.36472 6.09225 5.49805L3.78265 7.74613C4.15445 8.42689 4.57913 9.0708 5.0567 9.67785C5.53427 10.2849 6.05125 10.8647 6.60765 11.4173C7.15638 11.966 7.73973 12.4756 8.35768 12.9462C8.97563 13.4167 9.64293 13.8545 10.3596 14.2596L12.6038 11.9962C12.7602 11.8333 12.9497 11.7192 13.1721 11.6539C13.3945 11.5885 13.6256 11.5724 13.8654 11.6058L16.6423 12.1712C16.8948 12.2378 17.1009 12.3667 17.2605 12.5577C17.4201 12.7487 17.5 12.9654 17.5 13.2077V16.45C17.5 16.75 17.399 17 17.1972 17.2C16.9954 17.4 16.7431 17.5 16.4403 17.5ZM3.07305 6.32693L4.85768 4.61923C4.88973 4.59358 4.91056 4.55832 4.92018 4.51345C4.92979 4.46857 4.92819 4.4269 4.91538 4.38845L4.48075 2.15383C4.46793 2.10254 4.4455 2.06408 4.41345 2.03845C4.3814 2.0128 4.33973 1.99998 4.28845 1.99998H2.14997C2.11152 1.99998 2.07948 2.0128 2.05383 2.03845C2.02818 2.06408 2.01535 2.09613 2.01535 2.1346C2.06663 2.81793 2.17849 3.51217 2.35092 4.2173C2.52337 4.92243 2.76408 5.62564 3.07305 6.32693ZM11.773 14.9692C12.4359 15.2782 13.1272 15.5144 13.8471 15.6779C14.567 15.8413 15.2397 15.9384 15.8654 15.9692C15.9038 15.9692 15.9359 15.9564 15.9615 15.9308C15.9872 15.9051 16 15.873 16 15.8346V13.7308C16 13.6795 15.9872 13.6378 15.9615 13.6057C15.9359 13.5737 15.8974 13.5512 15.8461 13.5384L13.7461 13.1115C13.7077 13.0987 13.674 13.0971 13.6452 13.1067C13.6163 13.1163 13.5859 13.1372 13.5538 13.1692L11.773 14.9692Z" fill="#1C1B1F"/>
</symbol>

<symbol id="svg-psychiatry" width="18" height="18" viewBox="0 0 18 18" fill="none">
<path d="M8 18V10.025C6.93333 10.025 5.90833 9.82083 4.925 9.4125C3.94167 9.00417 3.075 8.425 2.325 7.675C1.575 6.925 1 6.05833 0.6 5.075C0.2 4.09167 0 3.06667 0 2V0H2C3.05 0 4.06667 0.204167 5.05 0.6125C6.03333 1.02083 6.9 1.6 7.65 2.35C8.16667 2.86667 8.59583 3.43333 8.9375 4.05C9.27917 4.66667 9.54167 5.325 9.725 6.025C9.80833 5.90833 9.9 5.79583 10 5.6875C10.1 5.57917 10.2083 5.46667 10.325 5.35C11.075 4.6 11.9417 4.02083 12.925 3.6125C13.9083 3.20417 14.9333 3 16 3H18V5C18 6.06667 17.7958 7.09167 17.3875 8.075C16.9792 9.05833 16.4 9.925 15.65 10.675C14.9 11.425 14.0375 12 13.0625 12.4C12.0875 12.8 11.0667 13 10 13V18H8ZM8 8C8 7.2 7.84583 6.4375 7.5375 5.7125C7.22917 4.9875 6.79167 4.34167 6.225 3.775C5.65833 3.20833 5.0125 2.77083 4.2875 2.4625C3.5625 2.15417 2.8 2 2 2C2 2.8 2.15 3.56667 2.45 4.3C2.75 5.03333 3.18333 5.68333 3.75 6.25C4.31667 6.81667 4.96667 7.25 5.7 7.55C6.43333 7.85 7.2 8 8 8ZM10 11C10.8 11 11.5625 10.85 12.2875 10.55C13.0125 10.25 13.6583 9.81667 14.225 9.25C14.7917 8.68333 15.2292 8.03333 15.5375 7.3C15.8458 6.56667 16 5.8 16 5C15.2 5 14.4333 5.15417 13.7 5.4625C12.9667 5.77083 12.3167 6.20833 11.75 6.775C11.1833 7.34167 10.75 7.9875 10.45 8.7125C10.15 9.4375 10 10.2 10 11Z" fill="#2A8927"/>
</symbol>

<symbol id="svg-search" width="19" height="20" viewBox="0 0 19 20" fill="none">
<path fill-rule="evenodd" clip-rule="evenodd" d="M8.49615 15.8188C12.2642 15.8188 15.3188 12.7642 15.3188 8.99615C15.3188 5.2281 12.2642 2.17348 8.49615 2.17348C4.7281 2.17348 1.67348 5.2281 1.67348 8.99615C1.67348 12.7642 4.7281 15.8188 8.49615 15.8188ZM8.49615 17.4923C13.1884 17.4923 16.9923 13.6884 16.9923 8.99615C16.9923 4.30386 13.1884 0.5 8.49615 0.5C3.80386 0.5 0 4.30386 0 8.99615C0 13.6884 3.80386 17.4923 8.49615 17.4923Z" fill="#121212"/>
<path fill-rule="evenodd" clip-rule="evenodd" d="M17.8167 19.5L13.5686 15.2519L14.7519 14.0686L19 18.3167L17.8167 19.5Z" fill="#121212"/>
</symbol>

<symbol id="svg-trash" width="24" height="24" viewBox="0 0 24 24" fill="none">
<path fill-rule="evenodd" clip-rule="evenodd" d="M8.60793 4.7037H15.3921C15.3394 4.62991 15.2831 4.55552 15.2229 4.48127C14.6224 3.73986 13.6395 3 12 3C10.3605 3 9.37761 3.73986 8.77706 4.48127C8.71693 4.55552 8.6606 4.62991 8.60793 4.7037ZM17.6882 4.7037C17.5056 4.29978 17.2149 3.76294 16.7771 3.22243C15.8776 2.112 14.3605 1 12 1C9.63951 1 8.12239 2.112 7.22294 3.22243C6.78512 3.76294 6.49439 4.29978 6.31176 4.7037H2V6.7037H3.94097L5.36954 23H18.6305L20.059 6.7037H22V4.7037H17.6882ZM18.0514 6.7037H5.94864L7.20189 21H16.7981L18.0514 6.7037Z" fill="#868686"/>
</symbol>

<symbol id="svg-viber" width="20" height="21" viewBox="0 0 20 21" fill="none">
<path fill-rule="evenodd" clip-rule="evenodd" d="M14.6759 0.627069C11.5297 -0.0762104 8.26706 -0.0762104 5.12088 0.627069L4.78188 0.702069C3.8969 0.89993 3.08409 1.33925 2.43375 1.97123C1.78341 2.60322 1.321 3.40311 1.09788 4.28207C0.30038 7.42459 0.30038 10.7165 1.09788 13.8591C1.31066 14.6973 1.74129 15.4644 2.34612 16.0826C2.95094 16.7008 3.70846 17.148 4.54188 17.3791L5.00688 20.1551C5.02173 20.2432 5.05993 20.3258 5.11752 20.3941C5.1751 20.4625 5.24997 20.5142 5.33431 20.5438C5.41865 20.5734 5.50939 20.5799 5.59708 20.5625C5.68476 20.5451 5.76619 20.5046 5.83288 20.4451L8.56388 18.0021C10.614 18.1272 12.6715 17.9632 14.6759 17.5151L15.0159 17.4401C15.9009 17.2422 16.7137 16.8029 17.364 16.1709C18.0144 15.5389 18.4768 14.739 18.6999 13.8601C19.4973 10.7175 19.4973 7.4256 18.6999 4.28307C18.4767 3.40399 18.0141 2.604 17.3636 1.97201C16.7131 1.34001 15.9 0.900765 15.0149 0.703069L14.6759 0.627069ZM5.96488 4.20107C5.77903 4.17402 5.58952 4.21143 5.42788 4.30707H5.41388C5.03888 4.52707 4.70088 4.80407 4.41288 5.13007C4.17288 5.40707 4.04288 5.68707 4.00888 5.95707C3.98888 6.11707 4.00288 6.27907 4.04988 6.43207L4.06788 6.44207C4.33788 7.23507 4.68988 7.99807 5.11988 8.71607C5.67433 9.72456 6.35664 10.6573 7.14988 11.4911L7.17388 11.5251L7.21188 11.5531L7.23488 11.5801L7.26288 11.6041C8.09961 12.3997 9.0345 13.0852 10.0449 13.6441C11.1999 14.2731 11.9009 14.5701 12.3219 14.6941V14.7001C12.4449 14.7381 12.5569 14.7551 12.6699 14.7551C13.0284 14.7286 13.3678 14.5828 13.6339 14.3411C13.9589 14.0531 14.2339 13.7141 14.4479 13.3371V13.3301C14.6489 12.9501 14.5809 12.5921 14.2909 12.3491C13.7084 11.8401 13.0785 11.388 12.4099 10.9991C11.9619 10.7561 11.5069 10.9031 11.3229 11.1491L10.9299 11.6451C10.7279 11.8911 10.3619 11.8571 10.3619 11.8571L10.3519 11.8631C7.62088 11.1661 6.89188 8.40107 6.89188 8.40107C6.89188 8.40107 6.85788 8.02507 7.11088 7.83307L7.60288 7.43707C7.83888 7.24507 8.00288 6.79107 7.74988 6.34307C7.36349 5.67383 6.91232 5.04414 6.40288 4.46307C6.29177 4.32631 6.13595 4.23317 5.96288 4.20007L5.96488 4.20107ZM10.5789 2.99907C10.4463 2.99907 10.3191 3.05175 10.2253 3.14552C10.1316 3.23928 10.0789 3.36646 10.0789 3.49907C10.0789 3.63168 10.1316 3.75885 10.2253 3.85262C10.3191 3.94639 10.4463 3.99907 10.5789 3.99907C11.8439 3.99907 12.8939 4.41207 13.7249 5.20407C14.1519 5.63707 14.4849 6.15007 14.7029 6.71207C14.9219 7.27507 15.0219 7.87607 14.9959 8.47807C14.9931 8.54373 15.0033 8.60929 15.0259 8.67101C15.0485 8.73273 15.083 8.78939 15.1275 8.83777C15.2173 8.93548 15.3423 8.9935 15.4749 8.99907C15.6075 9.00464 15.7369 8.9573 15.8346 8.86747C15.9323 8.77764 15.9903 8.65268 15.9959 8.52007C16.0269 7.77955 15.904 7.04066 15.6349 6.35007C15.3646 5.6562 14.9548 5.02519 14.4309 4.49607L14.4209 4.48607C13.3899 3.50107 12.0849 2.99907 10.5789 2.99907ZM10.5449 4.64307C10.4123 4.64307 10.2851 4.69575 10.1913 4.78952C10.0976 4.88328 10.0449 5.01046 10.0449 5.14307C10.0449 5.27568 10.0976 5.40285 10.1913 5.49662C10.2851 5.59039 10.4123 5.64307 10.5449 5.64307H10.5619C11.4739 5.70807 12.1379 6.01207 12.6029 6.51107C13.0799 7.02507 13.3269 7.66407 13.3079 8.45407C13.3048 8.58668 13.3546 8.71507 13.4462 8.81099C13.5378 8.90692 13.6638 8.96252 13.7964 8.96557C13.929 8.96862 14.0574 8.91887 14.1533 8.82725C14.2492 8.73564 14.3048 8.60968 14.3079 8.47707C14.3319 7.44007 13.9979 6.54507 13.3359 5.83107V5.82907C12.6589 5.10307 11.7299 4.71907 10.6119 4.64407L10.5949 4.64207L10.5449 4.64307ZM10.5259 6.31807C10.459 6.31216 10.3916 6.3198 10.3277 6.34053C10.2638 6.36126 10.2047 6.39465 10.154 6.43871C10.1033 6.48277 10.062 6.53659 10.0325 6.59697C10.0031 6.65734 9.98611 6.72303 9.98261 6.79012C9.97912 6.8572 9.98917 6.9243 10.0122 6.98741C10.0352 7.05052 10.0707 7.10835 10.1165 7.15743C10.1624 7.20652 10.2177 7.24587 10.2791 7.27313C10.3405 7.30038 10.4067 7.31499 10.4739 7.31607C10.8919 7.33807 11.1589 7.46407 11.3269 7.63307C11.4959 7.80307 11.6219 8.07607 11.6449 8.50307C11.6461 8.57017 11.6609 8.63633 11.6882 8.69761C11.7156 8.75889 11.755 8.81404 11.8041 8.85976C11.8533 8.90549 11.9111 8.94085 11.9742 8.96375C12.0372 8.98666 12.1043 8.99663 12.1713 8.99307C12.2383 8.98951 12.3039 8.97249 12.3642 8.94304C12.4245 8.91358 12.4783 8.87229 12.5223 8.82162C12.5663 8.77095 12.5997 8.71194 12.6204 8.64811C12.6411 8.58427 12.6487 8.51692 12.6429 8.45007C12.6109 7.85007 12.4229 7.32007 12.0379 6.93007C11.6509 6.54007 11.1239 6.35007 10.5259 6.31807Z" fill="#2A8927"/>
</symbol>

<symbol id="svg-youtube" width="20" height="15" viewBox="0 0 20 15" fill="none">
<path d="M8 10.9844L13.19 7.98438L8 4.98438V10.9844ZM19.56 3.15438C19.69 3.62438 19.78 4.25437 19.84 5.05437C19.91 5.85437 19.94 6.54437 19.94 7.14437L20 7.98438C20 10.1744 19.84 11.7844 19.56 12.8144C19.31 13.7144 18.73 14.2944 17.83 14.5444C17.36 14.6744 16.5 14.7644 15.18 14.8244C13.88 14.8944 12.69 14.9244 11.59 14.9244L10 14.9844C5.81 14.9844 3.2 14.8244 2.17 14.5444C1.27 14.2944 0.69 13.7144 0.44 12.8144C0.31 12.3444 0.22 11.7144 0.16 10.9144C0.0900001 10.1144 0.0599999 9.42438 0.0599999 8.82438L0 7.98438C0 5.79437 0.16 4.18438 0.44 3.15438C0.69 2.25438 1.27 1.67438 2.17 1.42438C2.64 1.29438 3.5 1.20437 4.82 1.14437C6.12 1.07437 7.31 1.04437 8.41 1.04437L10 0.984375C14.19 0.984375 16.8 1.14438 17.83 1.42438C18.73 1.67438 19.31 2.25438 19.56 3.15438Z" fill="#2A8927"/>
</symbol>

<symbol id="svg-arrow_bottom" width="11" height="7" viewBox="0 0 11 7" fill="none">
<path fill-rule="evenodd" clip-rule="evenodd" d="M0.218756 1.27501L4.97188 6.02813C5.26355 6.3198 5.73645 6.3198 6.02812 6.02813L10.7812 1.27501C11.0729 0.983331 11.0729 0.510432 10.7812 0.218757C10.4896 -0.0729184 10.0167 -0.0729184 9.72499 0.218757L5.5 4.44375L1.27501 0.218756C0.98333 -0.0729188 0.510432 -0.0729188 0.218756 0.218756C-0.0729188 0.510432 -0.0729188 0.98333 0.218756 1.27501Z" fill="#121212"/>
</symbol>

<symbol id="svg-arrow_left" width="7" height="11" viewBox="0 0 7 11" fill="none">
<path fill-rule="evenodd" clip-rule="evenodd" d="M5.725 10.7812L0.971876 6.02812C0.680201 5.73645 0.680201 5.26355 0.971876 4.97188L5.725 0.218757C6.01667 -0.0729189 6.48957 -0.0729189 6.78124 0.218757C7.07292 0.510432 7.07292 0.983331 6.78124 1.27501L2.55625 5.5L6.78124 9.72499C7.07292 10.0167 7.07292 10.4896 6.78124 10.7812C6.48957 11.0729 6.01667 11.0729 5.725 10.7812Z" fill="#121212"/>
</symbol>

<symbol id="svg-arrow_right" width="7" height="11" viewBox="0 0 7 11" fill="none">
<path fill-rule="evenodd" clip-rule="evenodd" d="M1.27501 10.7812L6.02812 6.02812C6.3198 5.73645 6.3198 5.26355 6.02812 4.97188L1.27501 0.218757C0.98333 -0.0729189 0.510432 -0.0729189 0.218756 0.218757C-0.0729188 0.510432 -0.0729188 0.98333 0.218756 1.27501L4.44375 5.5L0.218756 9.72499C-0.0729188 10.0167 -0.0729188 10.4896 0.218756 10.7812C0.510432 11.0729 0.98333 11.0729 1.27501 10.7812Z" fill="#121212"/>
</symbol>

<symbol id="svg-availability_check_mark" width="11" height="13" viewBox="0 0 11 13" fill="none">
<path fill-rule="evenodd" clip-rule="evenodd" d="M5.02609 12.464L5.02656 12.4622L5.02976 12.4505L5.04441 12.3979C5.05786 12.3503 5.07868 12.2778 5.10703 12.1831C5.16375 11.9935 5.25048 11.7149 5.36837 11.3668C5.60442 10.6698 5.96402 9.69813 6.45594 8.60666C7.44814 6.40516 8.94228 3.79857 10.9821 1.94655L9.63768 0.46582C7.30248 2.58603 5.67162 5.47944 4.63257 7.78488C4.29901 8.52498 4.02271 9.21298 3.80086 9.80746C3.12115 8.97211 2.09362 8.06911 0.619764 7.58874L0 9.49029C1.14827 9.86454 1.9281 10.6166 2.43208 11.3065C2.68303 11.65 2.85839 11.9688 2.9695 12.1982C3.0248 12.3123 3.06345 12.4028 3.08702 12.4611C3.09879 12.4902 3.10674 12.5111 3.11107 12.5228L3.11467 12.5327L3.11478 12.5329L3.11487 12.5332M5.026 12.4643L5.02609 12.464L5.026 12.4643Z" fill="#2A8927"/>
</symbol>

<symbol id="svg-bunny" width="14" height="20" viewBox="0 0 14 20" fill="none">
<path d="M4.5 20C3.25 20 2.1875 19.5625 1.3125 18.6875C0.4375 17.8125 0 16.75 0 15.5C0 14.9167 0.141667 14.3792 0.425 13.8875C0.708333 13.3958 1.23333 12.7667 2 12C2.1 11.9 2.19583 11.7958 2.2875 11.6875C2.37917 11.5792 2.5 11.4333 2.65 11.25C1.8 9.95 1.14583 8.5875 0.6875 7.1625C0.229167 5.7375 0 4.35 0 3C0 2.03333 0.175 1.29167 0.525 0.775C0.875 0.258333 1.36667 0 2 0C2.95 0 3.8 0.458333 4.55 1.375C5.3 2.29167 5.86667 3.13333 6.25 3.9C6.4 4.23333 6.5375 4.57083 6.6625 4.9125C6.7875 5.25417 6.9 5.60833 7 5.975C7.1 5.60833 7.2125 5.25417 7.3375 4.9125C7.4625 4.57083 7.60833 4.23333 7.775 3.9C8.14167 3.13333 8.7 2.29167 9.45 1.375C10.2 0.458333 11.05 0 12 0C12.6333 0 13.125 0.258333 13.475 0.775C13.825 1.29167 14 2.03333 14 3C14 4.35 13.7708 5.7375 13.3125 7.1625C12.8542 8.5875 12.2 9.95 11.35 11.25C11.5 11.4333 11.6208 11.5792 11.7125 11.6875C11.8042 11.7958 11.9 11.9 12 12C12.7667 12.7667 13.2917 13.3958 13.575 13.8875C13.8583 14.3792 14 14.9167 14 15.5C14 16.75 13.5625 17.8125 12.6875 18.6875C11.8125 19.5625 10.75 20 9.5 20C8.75 20 8.14583 19.9167 7.6875 19.75L7 19.5L6.3125 19.75C5.85417 19.9167 5.25 20 4.5 20ZM4.5 18C4.88333 18 5.26667 17.9542 5.65 17.8625C6.03333 17.7708 6.39167 17.6333 6.725 17.45C6.54167 17.3667 6.375 17.225 6.225 17.025C6.075 16.825 6 16.65 6 16.5C6 16.3667 6.09583 16.25 6.2875 16.15C6.47917 16.05 6.71667 16 7 16C7.28333 16 7.52083 16.05 7.7125 16.15C7.90417 16.25 8 16.3667 8 16.5C8 16.65 7.925 16.825 7.775 17.025C7.625 17.225 7.45833 17.3667 7.275 17.45C7.60833 17.6333 7.96667 17.7708 8.35 17.8625C8.73333 17.9542 9.11667 18 9.5 18C10.2 18 10.7917 17.7583 11.275 17.275C11.7583 16.7917 12 16.2 12 15.5C12 15.2 11.9167 14.9083 11.75 14.625C11.5833 14.3417 11.3333 14.0583 11 13.775C10.7667 13.575 10.575 13.4 10.425 13.25C10.275 13.1 10.0333 12.8167 9.7 12.4C9.21667 11.8167 8.81667 11.4375 8.5 11.2625C8.18333 11.0875 7.68333 11 7 11C6.31667 11 5.8125 11.0875 5.4875 11.2625C5.1625 11.4375 4.76667 11.8167 4.3 12.4C3.96667 12.8167 3.725 13.1 3.575 13.25C3.425 13.4 3.23333 13.575 3 13.775C2.66667 14.0583 2.41667 14.3417 2.25 14.625C2.08333 14.9083 2 15.2 2 15.5C2 16.2 2.24167 16.7917 2.725 17.275C3.20833 17.7583 3.8 18 4.5 18ZM5.5 14.75C5.36667 14.75 5.25 14.675 5.15 14.525C5.05 14.375 5 14.2 5 14C5 13.8 5.05 13.625 5.15 13.475C5.25 13.325 5.36667 13.25 5.5 13.25C5.63333 13.25 5.75 13.325 5.85 13.475C5.95 13.625 6 13.8 6 14C6 14.2 5.95 14.375 5.85 14.525C5.75 14.675 5.63333 14.75 5.5 14.75ZM8.5 14.75C8.36667 14.75 8.25 14.675 8.15 14.525C8.05 14.375 8 14.2 8 14C8 13.8 8.05 13.625 8.15 13.475C8.25 13.325 8.36667 13.25 8.5 13.25C8.63333 13.25 8.75 13.325 8.85 13.475C8.95 13.625 9 13.8 9 14C9 14.2 8.95 14.375 8.85 14.525C8.75 14.675 8.63333 14.75 8.5 14.75ZM4.075 9.775C4.25833 9.64167 4.46667 9.525 4.7 9.425C4.93333 9.325 5.19167 9.23333 5.475 9.15C5.44167 8.35 5.32083 7.55417 5.1125 6.7625C4.90417 5.97083 4.64167 5.25 4.325 4.6C4.00833 3.93333 3.65833 3.37083 3.275 2.9125C2.89167 2.45417 2.50833 2.15833 2.125 2.025C2.09167 2.125 2.0625 2.25417 2.0375 2.4125C2.0125 2.57083 2 2.76667 2 3C2 4.13333 2.17917 5.28333 2.5375 6.45C2.89583 7.61667 3.40833 8.725 4.075 9.775ZM9.925 9.775C10.5917 8.725 11.1042 7.61667 11.4625 6.45C11.8208 5.28333 12 4.13333 12 3C12 2.76667 11.9875 2.57083 11.9625 2.4125C11.9375 2.25417 11.9083 2.125 11.875 2.025C11.4917 2.15833 11.1083 2.45417 10.725 2.9125C10.3417 3.37083 9.99167 3.93333 9.675 4.6C9.375 5.25 9.12083 5.97083 8.9125 6.7625C8.70417 7.55417 8.575 8.35 8.525 9.15C8.775 9.21667 9.01667 9.30417 9.25 9.4125C9.48333 9.52083 9.70833 9.64167 9.925 9.775Z" fill="#2A8927"/>
</symbol>

<symbol id="svg-cart" width="24" height="24" viewBox="0 0 24 24" fill="none">
<g clip-path="url(#clip0_2230_10573)">
<path d="M1.02029 0C0.749692 0 0.490177 0.105357 0.298836 0.292893C0.107495 0.48043 0 0.734784 0 1C0 1.26522 0.107495 1.51957 0.298836 1.70711C0.490177 1.89464 0.749692 2 1.02029 2H1.52227C1.74382 2.00038 1.95922 2.07142 2.13593 2.2024C2.31264 2.33338 2.44105 2.51717 2.50175 2.726L5.73811 13.826C5.92115 14.4524 6.30731 15.0034 6.83819 15.3956C7.36907 15.7878 8.01581 16 8.68062 16H18.004C18.6159 16.0001 19.2137 15.8205 19.7204 15.4843C20.2271 15.1481 20.6194 14.6708 20.8466 14.114L23.8544 6.742C23.978 6.43865 24.024 6.11024 23.9882 5.78546C23.9525 5.46068 23.8361 5.14943 23.6493 4.87892C23.4625 4.6084 23.2109 4.38685 22.9165 4.23364C22.6222 4.08042 22.294 4.00021 21.9607 4H4.99534L4.46275 2.176C4.28017 1.54955 3.89448 0.998372 3.36398 0.605793C2.83348 0.213214 2.187 0.000568736 1.52227 0H1.02029ZM7.70115 13.274L5.57894 6H21.9587L18.9509 13.372C18.8751 13.5574 18.7444 13.7163 18.5756 13.8282C18.4069 13.9401 18.2078 14 18.004 14H8.68062C8.45908 13.9996 8.24367 13.9286 8.06697 13.7976C7.89026 13.6666 7.76185 13.4828 7.70115 13.274ZM9.18261 24C9.58457 24 9.98259 23.9224 10.3539 23.7716C10.7253 23.6209 11.0627 23.3999 11.347 23.1213C11.6312 22.8427 11.8567 22.512 12.0105 22.1481C12.1643 21.7841 12.2435 21.394 12.2435 21C12.2435 20.606 12.1643 20.2159 12.0105 19.8519C11.8567 19.488 11.6312 19.1573 11.347 18.8787C11.0627 18.6001 10.7253 18.3791 10.3539 18.2284C9.98259 18.0776 9.58457 18 9.18261 18C8.37081 18 7.59227 18.3161 7.01824 18.8787C6.44422 19.4413 6.12174 20.2044 6.12174 21C6.12174 21.7956 6.44422 22.5587 7.01824 23.1213C7.59227 23.6839 8.37081 24 9.18261 24ZM9.18261 22C8.91201 22 8.65249 21.8946 8.46115 21.7071C8.26981 21.5196 8.16232 21.2652 8.16232 21C8.16232 20.7348 8.26981 20.4804 8.46115 20.2929C8.65249 20.1054 8.91201 20 9.18261 20C9.4532 20 9.71272 20.1054 9.90406 20.2929C10.0954 20.4804 10.2029 20.7348 10.2029 21C10.2029 21.2652 10.0954 21.5196 9.90406 21.7071C9.71272 21.8946 9.4532 22 9.18261 22ZM17.3449 24C17.7469 24 18.1449 23.9224 18.5163 23.7716C18.8876 23.6209 19.2251 23.3999 19.5093 23.1213C19.7935 22.8427 20.019 22.512 20.1728 22.1481C20.3266 21.7841 20.4058 21.394 20.4058 21C20.4058 20.606 20.3266 20.2159 20.1728 19.8519C20.019 19.488 19.7935 19.1573 19.5093 18.8787C19.2251 18.6001 18.8876 18.3791 18.5163 18.2284C18.1449 18.0776 17.7469 18 17.3449 18C16.5331 18 15.7546 18.3161 15.1806 18.8787C14.6065 19.4413 14.2841 20.2044 14.2841 21C14.2841 21.7956 14.6065 22.5587 15.1806 23.1213C15.7546 23.6839 16.5331 24 17.3449 24ZM17.3449 22C17.0743 22 16.8148 21.8946 16.6235 21.7071C16.4321 21.5196 16.3246 21.2652 16.3246 21C16.3246 20.7348 16.4321 20.4804 16.6235 20.2929C16.8148 20.1054 17.0743 20 17.3449 20C17.6155 20 17.875 20.1054 18.0664 20.2929C18.2577 20.4804 18.3652 20.7348 18.3652 21C18.3652 21.2652 18.2577 21.5196 18.0664 21.7071C17.875 21.8946 17.6155 22 17.3449 22Z" fill="#121212"/>
</g>
<defs>
<clipPath>
<rect width="24" height="24" fill="white"/>
</clipPath>
</defs>
</symbol>

<symbol id="svg-checkmark" width="19" height="15" viewBox="0 0 19 15" fill="none">
<path fill-rule="evenodd" clip-rule="evenodd" d="M18.7072 1.70718L6.00008 14.4143L0.292969 8.70718L1.70718 7.29297L6.00008 11.5859L17.293 0.292969L18.7072 1.70718Z" fill="#F8F8F8"/>
</symbol>

</svg>


