<?xml version="1.0" encoding="utf-8"?><svg xmlns="http://www.w3.org/2000/svg" xmlns:xlink="http://www.w3.org/1999/xlink"><symbol viewBox="0 0 11 7" id="arrow_bottom" xmlns="http://www.w3.org/2000/svg"><path fill-rule="evenodd" clip-rule="evenodd" d="M.219 1.275l4.753 4.753a.747.747 0 001.056 0l4.753-4.753A.747.747 0 109.725.219L5.5 4.444 1.275.219A.747.747 0 00.219 1.275z"/></symbol><symbol viewBox="0 0 7 11" id="arrow_left" xmlns="http://www.w3.org/2000/svg"><path fill-rule="evenodd" clip-rule="evenodd" d="M5.725 10.781L.972 6.028a.747.747 0 010-1.056L5.725.219a.747.747 0 111.056 1.056L2.556 5.5l4.225 4.225a.747.747 0 11-1.056 1.056z"/></symbol><symbol viewBox="0 0 7 11" id="arrow_right" xmlns="http://www.w3.org/2000/svg"><path fill-rule="evenodd" clip-rule="evenodd" d="M1.275 10.781l4.753-4.753a.747.747 0 000-1.056L1.275.219A.747.747 0 00.219 1.275L4.444 5.5.219 9.725a.747.747 0 101.056 1.056z"/></symbol><symbol viewBox="0 0 11 13" id="availability_check_mark" xmlns="http://www.w3.org/2000/svg"><path fill-rule="evenodd" clip-rule="evenodd" d="M5.026 12.464v-.002l.004-.011.014-.053.063-.215c.057-.19.143-.468.261-.816.236-.697.596-1.669 1.088-2.76.992-2.202 2.486-4.808 4.526-6.66L9.638.466c-2.336 2.12-3.966 5.013-5.005 7.319-.334.74-.61 1.428-.832 2.022C3.12 8.972 2.094 8.07.62 7.59L0 9.49c1.148.375 1.928 1.127 2.432 1.816a5.859 5.859 0 01.655 1.155l.024.062.004.01m1.911-.069z"/></symbol><symbol viewBox="0 0 14 20" id="bunny" xmlns="http://www.w3.org/2000/svg"><path d="M4.5 20c-1.25 0-2.313-.438-3.188-1.313S0 16.75 0 15.5c0-.583.142-1.12.425-1.613.283-.491.808-1.12 1.575-1.887.1-.1.196-.204.288-.313.091-.108.212-.254.362-.437A16.905 16.905 0 01.688 7.162C.228 5.737 0 4.35 0 3 0 2.033.175 1.292.525.775.875.258 1.367 0 2 0c.95 0 1.8.458 2.55 1.375.75.917 1.317 1.758 1.7 2.525.15.333.287.67.412 1.012.125.342.238.696.338 1.063.1-.367.213-.72.338-1.063.125-.341.27-.679.437-1.012.367-.767.925-1.608 1.675-2.525C10.2.458 11.05 0 12 0c.633 0 1.125.258 1.475.775.35.517.525 1.258.525 2.225 0 1.35-.23 2.737-.688 4.162a16.904 16.904 0 01-1.962 4.088c.15.183.27.33.363.438.091.108.187.212.287.312.767.767 1.292 1.396 1.575 1.887.283.492.425 1.03.425 1.613 0 1.25-.438 2.313-1.313 3.188C11.813 19.563 10.75 20 9.5 20c-.75 0-1.354-.083-1.813-.25L7 19.5l-.688.25c-.458.167-1.062.25-1.812.25zm0-2c.383 0 .767-.046 1.15-.137.383-.092.742-.23 1.075-.413a1.316 1.316 0 01-.5-.425c-.15-.2-.225-.375-.225-.525 0-.133.096-.25.287-.35.192-.1.43-.15.713-.15s.52.05.713.15c.191.1.287.217.287.35 0 .15-.075.325-.225.525-.15.2-.317.342-.5.425.333.183.692.32 1.075.413.383.091.767.137 1.15.137.7 0 1.292-.242 1.775-.725.483-.483.725-1.075.725-1.775 0-.3-.083-.592-.25-.875-.167-.283-.417-.567-.75-.85-.233-.2-.425-.375-.575-.525-.15-.15-.392-.433-.725-.85-.483-.583-.883-.963-1.2-1.138C8.183 11.087 7.683 11 7 11s-1.188.088-1.513.262c-.325.175-.72.555-1.187 1.138-.333.417-.575.7-.725.85-.15.15-.342.325-.575.525-.333.283-.583.567-.75.85-.167.283-.25.575-.25.875 0 .7.242 1.292.725 1.775C3.208 17.758 3.8 18 4.5 18zm1-3.25c-.133 0-.25-.075-.35-.225A.924.924 0 015 14c0-.2.05-.375.15-.525.1-.15.217-.225.35-.225.133 0 .25.075.35.225.1.15.15.325.15.525s-.05.375-.15.525c-.1.15-.217.225-.35.225zm3 0c-.133 0-.25-.075-.35-.225A.924.924 0 018 14c0-.2.05-.375.15-.525.1-.15.217-.225.35-.225.133 0 .25.075.35.225.1.15.15.325.15.525s-.05.375-.15.525c-.1.15-.217.225-.35.225zM4.075 9.775c.183-.133.392-.25.625-.35.233-.1.492-.192.775-.275-.033-.8-.154-1.596-.362-2.388A11.765 11.765 0 004.324 4.6c-.317-.667-.667-1.23-1.05-1.687-.383-.459-.767-.755-1.15-.888-.033.1-.063.23-.087.388A3.858 3.858 0 002 3c0 1.133.18 2.283.538 3.45.358 1.167.87 2.275 1.537 3.325zm5.85 0a13.662 13.662 0 001.537-3.325C11.822 5.283 12 4.133 12 3c0-.233-.012-.43-.037-.587a2.489 2.489 0 00-.088-.388c-.383.133-.767.43-1.15.888-.383.458-.733 1.02-1.05 1.687-.3.65-.554 1.37-.763 2.163a12.401 12.401 0 00-.387 2.387c.25.067.492.154.725.262.233.109.458.23.675.363z"/></symbol><symbol viewBox="0 0 24 24" id="cart" xmlns="http://www.w3.org/2000/svg"><g clip-path="url(#afclip0_2230_10573)"><path d="M1.02 0C.75 0 .49.105.3.293a.99.99 0 000 1.414C.49 1.895.749 2 1.02 2h.502c.222 0 .437.071.614.202a1 1 0 01.366.524l3.236 11.1a3 3 0 001.1 1.57c.531.392 1.178.604 1.843.604h9.323c.612 0 1.21-.18 1.716-.516a3.012 3.012 0 001.127-1.37l3.007-7.372a1.964 1.964 0 00-.205-1.863 2.027 2.027 0 00-.733-.645A2.073 2.073 0 0021.962 4H4.995l-.532-1.824A3 3 0 003.364.606 3.102 3.102 0 001.522 0H1.02zm6.681 13.274L5.58 6h16.38l-3.008 7.372a1.004 1.004 0 01-.375.456 1.035 1.035 0 01-.572.172H8.681c-.222 0-.437-.071-.614-.202a1 1 0 01-.366-.524zM9.183 24c.402 0 .8-.078 1.17-.228.372-.151.71-.372.994-.65.284-.28.51-.61.664-.974a2.949 2.949 0 00-.664-3.27 3.065 3.065 0 00-.993-.65 3.114 3.114 0 00-3.336.65A2.97 2.97 0 006.122 21c0 .796.322 1.559.896 2.121A3.093 3.093 0 009.183 24zm0-2c-.271 0-.53-.105-.722-.293a.99.99 0 010-1.414 1.031 1.031 0 011.443 0 .99.99 0 010 1.414c-.191.188-.45.293-.721.293zm8.162 2c.402 0 .8-.078 1.171-.228.372-.151.71-.372.993-.65.285-.28.51-.61.664-.974a2.949 2.949 0 00-.664-3.27 3.065 3.065 0 00-.993-.65 3.114 3.114 0 00-3.335.65A2.97 2.97 0 0014.284 21c0 .796.322 1.559.897 2.121a3.093 3.093 0 002.164.879zm0-2c-.27 0-.53-.105-.721-.293a.99.99 0 010-1.414 1.03 1.03 0 011.442 0 .99.99 0 010 1.414c-.191.188-.45.293-.721.293z"/></g><defs><clipPath id="afclip0_2230_10573"><path d="M0 0h24v24H0z"/></clipPath></defs></symbol><symbol viewBox="0 0 19 15" id="checkmark" xmlns="http://www.w3.org/2000/svg"><path fill-rule="evenodd" clip-rule="evenodd" d="M18.707 1.707L6 14.414.293 8.707l1.414-1.414L6 11.586 17.293.293l1.414 1.414z"/></symbol><symbol viewBox="0 0 24 24" id="close_eye" xmlns="http://www.w3.org/2000/svg"><path d="M8.488 13.479l1.124-1.123c-.171-.89.063-1.649.701-2.277.639-.628 1.405-.87 2.298-.723l1.124-1.123A3.089 3.089 0 0013.018 8a3.98 3.98 0 00-.757-.071c-1.134 0-2.097.396-2.889 1.187-.792.792-1.187 1.755-1.187 2.89 0 .259.022.511.066.756.044.246.123.485.237.717zm-3.18 3.111l1.104-1.034a10.77 10.77 0 01-1.7-1.613 8.951 8.951 0 01-1.25-1.937 9.773 9.773 0 013.612-4.013 9.545 9.545 0 015.188-1.487c.483 0 .954.033 1.412.1.458.066.92.166 1.388.3l1.165-1.166a10.218 10.218 0 00-1.945-.555c-.661-.12-1.335-.18-2.02-.18-2.15 0-4.123.56-5.922 1.676a11.208 11.208 0 00-4.15 4.532 1.615 1.615 0 00-.19.793c0 .143.013.28.038.408.025.13.07.257.137.384a9.553 9.553 0 001.333 2.085 10.916 10.916 0 001.8 1.707zm6.954 2.416c2.105 0 4.034-.563 5.788-1.688a12.451 12.451 0 004.183-4.445c.083-.127.144-.265.182-.413.039-.15.058-.3.058-.454 0-.154-.017-.303-.05-.446a1.432 1.432 0 00-.175-.422 15.168 15.168 0 00-1.264-1.94 9.45 9.45 0 00-1.623-1.654l2.258-2.273a.74.74 0 00.205-.53.724.724 0 00-.22-.524.718.718 0 00-.527-.217.717.717 0 00-.527.217L3.973 20.794a.744.744 0 00-.22.515.697.697 0 00.22.539c.145.145.32.217.527.217a.717.717 0 00.527-.217l3.52-3.488a9.05 9.05 0 001.817.494 11.79 11.79 0 001.897.152zm6.046-10.408a9.68 9.68 0 011.58 1.536 8.84 8.84 0 011.173 1.872 9.772 9.772 0 01-3.612 4.012 9.544 9.544 0 01-5.188 1.488c-.429 0-.852-.03-1.268-.087a8.57 8.57 0 01-1.24-.267l1.266-1.296c.203.088.405.148.607.18.202.03.414.047.636.047 1.134 0 2.097-.396 2.889-1.188.792-.791 1.187-1.755 1.187-2.89 0-.221-.017-.433-.052-.635a2.937 2.937 0 00-.175-.607l2.197-2.165z"/></symbol><symbol viewBox="0 0 14 14" id="closer" xmlns="http://www.w3.org/2000/svg"><path fill-rule="evenodd" clip-rule="evenodd" d="M8.374 7L14 1.374 12.626 0 7 5.626 1.374 0 0 1.374 5.626 7 0 12.626 1.374 14 7 8.374 12.626 14 14 12.626 8.374 7z"/></symbol><symbol viewBox="0 0 17 17" id="ecolist" xmlns="http://www.w3.org/2000/svg"><path d="M2.4 14.6A8.297 8.297 0 01.638 12C.212 11.017 0 10 0 8.95 0 7.9.2 6.863.6 5.838 1 4.813 1.65 3.85 2.55 2.95c.583-.583 1.304-1.083 2.163-1.5.858-.417 1.875-.746 3.05-.987C8.938.22 10.279.075 11.787.025c1.509-.05 3.196.008 5.063.175a44.99 44.99 0 01.125 4.875c-.05 1.483-.188 2.821-.413 4.013-.225 1.191-.541 2.233-.95 3.125-.408.891-.912 1.637-1.512 2.237-.883.884-1.82 1.53-2.813 1.938A7.91 7.91 0 018.25 17a8.275 8.275 0 01-3.175-.637A8.085 8.085 0 012.4 14.6zm2.8-.4c.483.284.98.488 1.487.613A6.52 6.52 0 008.25 15c.767 0 1.525-.154 2.275-.462.75-.309 1.467-.805 2.15-1.488.3-.3.604-.72.912-1.262.309-.542.575-1.25.8-2.125.226-.875.396-1.934.513-3.175.117-1.242.133-2.721.05-4.438a57.022 57.022 0 00-2.762-.037 22.193 22.193 0 00-3.063.237c-1.017.15-1.983.392-2.9.725-.917.333-1.667.792-2.25 1.375-.75.75-1.267 1.492-1.55 2.225C2.142 7.308 2 8.017 2 8.7c0 .983.188 1.846.563 2.588.374.741.704 1.262.987 1.562.7-1.333 1.625-2.612 2.775-3.837A14.553 14.553 0 0110.35 6a18.26 18.26 0 00-3.137 3.563C6.32 10.888 5.65 12.433 5.2 14.2z"/></symbol><symbol viewBox="0 0 20 21" id="facebook" xmlns="http://www.w3.org/2000/svg"><path d="M20 10.984c0-5.52-4.48-10-10-10s-10 4.48-10 10c0 4.84 3.44 8.87 8 9.8v-6.8H6v-3h2v-2.5c0-1.93 1.57-3.5 3.5-3.5H14v3h-2c-.55 0-1 .45-1 1v2h3v3h-3v6.95c5.05-.5 9-4.76 9-9.95z"/></symbol><symbol viewBox="0 0 15 15" id="filter" xmlns="http://www.w3.org/2000/svg"><path d="M6.651 15a.857.857 0 01-.63-.254.856.856 0 01-.254-.63v-5.79L.169 1.217C-.024.958-.051.691.085.415.222.137.452 0 .776 0h12.981c.324 0 .555.138.691.415.137.277.109.544-.083.8L8.767 8.327v5.788a.856.856 0 01-.254.631.857.857 0 01-.63.254H6.65zm.616-7.2l4.95-6.3h-9.9l4.95 6.3z"/></symbol><symbol viewBox="0 0 20 20" id="flower" xmlns="http://www.w3.org/2000/svg"><path d="M10.05 20c-.95 0-1.792-.3-2.525-.9a3.842 3.842 0 01-1.375-2.3 4.092 4.092 0 01-2.675-.05c-.9-.317-1.592-.867-2.075-1.65-.5-.8-.683-1.688-.55-2.662A3.856 3.856 0 012.15 10 3.861 3.861 0 01.887 7.65c-.141-.933.013-1.8.463-2.6s1.13-1.38 2.037-1.737C4.296 2.954 5.2 2.917 6.1 3.2c.183-.933.642-1.7 1.375-2.3C8.208.3 9.05 0 10 0s1.792.3 2.525.9A3.843 3.843 0 0113.9 3.2c.933-.283 1.838-.258 2.713.075s1.554.925 2.037 1.775c.45.833.613 1.704.488 2.612-.126.909-.555 1.688-1.288 2.338a3.895 3.895 0 011.313 2.412A4.216 4.216 0 0118.7 15.1c-.483.85-1.162 1.417-2.037 1.7-.876.283-1.78.283-2.713 0a3.843 3.843 0 01-1.375 2.3c-.733.6-1.575.9-2.525.9zm0-2c.783 0 1.37-.337 1.762-1.012.392-.675.388-1.338-.012-1.988l-.7-1.15c-.183.05-.358.088-.525.113a3.539 3.539 0 01-1.038 0A4.419 4.419 0 019 13.85L8.3 15c-.4.65-.404 1.313-.013 1.988.392.675.98 1.012 1.763 1.012zm-7-4c.4.683.987 1.025 1.762 1.025S6.167 14.683 6.55 14l.65-1.15a4.55 4.55 0 01-.375-.425 2.842 2.842 0 01-.3-.475 4.737 4.737 0 01-.4-.95H4.8c-.783 0-1.367.33-1.75.988-.383.658-.383 1.329 0 2.012zm10.4 0c.383.683.963 1.025 1.738 1.025.774 0 1.362-.342 1.762-1.025.383-.683.383-1.354 0-2.012-.383-.659-.967-.988-1.75-.988h-1.325c-.033.167-.088.33-.162.488a8.065 8.065 0 01-.238.462 2.851 2.851 0 01-.3.475c-.117.15-.242.292-.375.425l.65 1.15zM6.125 9c.05-.183.112-.363.187-.537.075-.175.155-.338.238-.488.083-.15.18-.292.287-.425.109-.133.23-.267.363-.4L6.55 6c-.383-.683-.963-1.025-1.738-1.025S3.45 5.317 3.05 6c-.383.683-.383 1.354 0 2.012.383.659.967.988 1.75.988h1.325zM15.2 9c.783 0 1.367-.33 1.75-.988.383-.658.383-1.329 0-2.012-.4-.683-.987-1.025-1.762-1.025-.776 0-1.355.342-1.738 1.025l-.65 1.15c.133.133.254.267.362.4.109.133.205.275.288.425.083.15.163.313.238.488.074.175.137.354.187.537H15.2zM8.925 6.15c.183-.05.362-.088.537-.113a3.796 3.796 0 011.075 0c.175.026.355.063.538.113L11.75 5c.383-.65.383-1.313 0-1.987C11.367 2.338 10.783 2 10 2s-1.367.333-1.75 1-.383 1.333 0 2l.675 1.15zM10 12c.55 0 1.02-.196 1.412-.588.392-.391.588-.862.588-1.412 0-.55-.196-1.02-.588-1.412A1.926 1.926 0 0010 8c-.55 0-1.02.196-1.413.588A1.926 1.926 0 008 10c0 .55.196 1.02.587 1.412.392.392.863.588 1.413.588z"/></symbol><symbol viewBox="0 0 20 16" id="grass" xmlns="http://www.w3.org/2000/svg"><path d="M0 16v-2h5.75a7.878 7.878 0 00-2.087-3.662A7.878 7.878 0 000 8.25 7.959 7.959 0 012 8c2.233 0 4.125.775 5.675 2.325C9.225 11.875 10 13.767 10 16H0zm12 0a10.09 10.09 0 00-.875-4.075 8.02 8.02 0 012.863-2.85C15.196 8.358 16.532 8 18 8a7.959 7.959 0 012 .25 7.798 7.798 0 00-3.65 2.088A8.122 8.122 0 0014.25 14H20v2h-8zm-2-5.975c0-1.083.2-2.1.6-3.05.4-.95.95-1.787 1.65-2.512a8.087 8.087 0 012.463-1.738 7.707 7.707 0 013.012-.7c-.933.583-1.75 1.3-2.45 2.15-.7.85-1.242 1.8-1.625 2.85-.733.35-1.404.78-2.013 1.287A10.622 10.622 0 0010 10.026zM8.175 8.15c-.2-.15-.4-.292-.6-.425-.2-.133-.408-.267-.625-.4 0-.1.008-.204.025-.313C6.992 6.905 7 6.8 7 6.7A10.737 10.737 0 004.7 0a8.255 8.255 0 012.862 1.938A8.839 8.839 0 019.425 4.85c-.3.5-.558 1.03-.775 1.588a8.861 8.861 0 00-.475 1.712z"/></symbol><symbol viewBox="0 0 21 21" id="hand_heart" xmlns="http://www.w3.org/2000/svg"><path d="M15 11l-4.15-4.05a7.848 7.848 0 01-1.313-1.663A3.846 3.846 0 019 3.3c0-.917.32-1.696.963-2.337C10.604.32 11.383 0 12.3 0a3.41 3.41 0 011.5.338c.467.224.867.529 1.2.912a3.702 3.702 0 011.2-.912A3.41 3.41 0 0117.7 0c.917 0 1.696.32 2.338.963.641.641.962 1.42.962 2.337 0 .717-.175 1.38-.525 1.987a7.533 7.533 0 01-1.3 1.663L15 11zm0-2.8l2.725-2.675c.317-.317.608-.654.875-1.013.267-.358.4-.762.4-1.212 0-.367-.125-.675-.375-.925A1.257 1.257 0 0017.7 2c-.233 0-.454.046-.662.138-.209.091-.388.229-.538.412L15 4.35l-1.5-1.8c-.15-.183-.33-.32-.537-.412A1.627 1.627 0 0012.3 2c-.367 0-.675.125-.925.375S11 2.933 11 3.3c0 .45.133.854.4 1.213.267.358.558.695.875 1.012L15 8.2zm-9 8.3l6.95 1.9 5.95-1.85a1.142 1.142 0 00-.362-.387A.93.93 0 0018 16h-5.05a9.1 9.1 0 01-1.075-.05 3.952 3.952 0 01-.825-.2l-2.325-.775.55-1.95 2.025.675c.283.083.617.15 1 .2.383.05.95.083 1.7.1a.949.949 0 00-.162-.525.753.753 0 00-.388-.325L7.6 11H6v5.5zM0 20V9h7.6c.117 0 .233.012.35.037.117.025.225.055.325.088L14.15 11.3c.55.2.996.55 1.338 1.05.341.5.512 1.05.512 1.65h2c.833 0 1.542.275 2.125.825.583.55.875 1.275.875 2.175v1l-8 2.5-7-1.95V20H0zm2-2h2v-7H2v7z"/></symbol><symbol viewBox="0 0 30 26" id="heart-red" xmlns="http://www.w3.org/2000/svg"><path d="M9.02 1.333a7.333 7.333 0 00-7.332 7.334c0 7.333 8.666 14 13.333 15.55 4.666-1.55 13.333-8.217 13.333-15.55a7.334 7.334 0 00-13.333-4.218 7.324 7.324 0 00-6-3.116z"/></symbol><symbol viewBox="0 0 30 26" id="heart-red_active" xmlns="http://www.w3.org/2000/svg"><path d="M9.02 1.333a7.333 7.333 0 00-7.332 7.334c0 7.333 8.666 14 13.333 15.55 4.666-1.55 13.333-8.217 13.333-15.55a7.334 7.334 0 00-13.333-4.218 7.324 7.324 0 00-6-3.116z"/></symbol><symbol viewBox="0 0 24 24" id="like" xmlns="http://www.w3.org/2000/svg"><path fill-rule="evenodd" clip-rule="evenodd" d="M11.993 3.733c-2.34-2.062-5.8-2.484-8.488-.169C.598 6.07.176 10.286 2.475 13.268c.872 1.132 2.575 2.833 4.212 4.39a185.818 185.818 0 004.122 3.793l.016.014c.076.068.172.153.263.223.11.083.267.186.476.25.28.083.579.083.858 0 .21-.064.367-.167.476-.25.092-.07.187-.155.264-.223l.015-.014c.815-.728 2.467-2.217 4.123-3.793 1.636-1.557 3.34-3.258 4.212-4.39 2.29-2.97 1.932-7.22-1.041-9.712-2.717-2.277-6.141-1.886-8.478.177zm-.76 2.086c-1.705-2.01-4.415-2.456-6.429-.721-2.103 1.812-2.386 4.81-.75 6.933.763.99 2.353 2.588 4.006 4.161a182.955 182.955 0 003.933 3.622c.847-.758 2.39-2.153 3.934-3.622 1.653-1.573 3.242-3.171 4.006-4.161 1.644-2.134 1.382-5.146-.74-6.925-2.068-1.732-4.742-1.288-6.44.713a.997.997 0 01-1.52 0z"/></symbol><symbol viewBox="0 0 20 16" id="mail" xmlns="http://www.w3.org/2000/svg"><path d="M2.308 15.5c-.505 0-.933-.175-1.283-.525A1.745 1.745 0 01.5 13.692V2.308c0-.505.175-.933.525-1.283C1.375.675 1.803.5 2.308.5h15.384c.505 0 .933.175 1.283.525.35.35.525.778.525 1.283v11.384c0 .505-.175.933-.525 1.283-.35.35-.778.525-1.283.525H2.308zM18 3.442l-7.514 4.81a1.181 1.181 0 01-.238.103.848.848 0 01-.496 0 1.181 1.181 0 01-.239-.103L2 3.442v10.25a.3.3 0 00.087.221.3.3 0 00.22.087h15.385a.3.3 0 00.221-.087.3.3 0 00.087-.22V3.442zM10 7l7.846-5H2.154L10 7zM2 3.673V2.53v.03-.032 1.145z"/></symbol><symbol viewBox="0 0 18 18" id="map" xmlns="http://www.w3.org/2000/svg"><path d="M12 18l-6-2.1-4.65 1.8a.903.903 0 01-.925-.113A.988.988 0 010 16.75v-14c0-.217.063-.408.188-.575A1.13 1.13 0 01.7 1.8L6 0l6 2.1L16.65.3a.903.903 0 01.925.112.988.988 0 01.425.838v14a.933.933 0 01-.188.575 1.129 1.129 0 01-.512.375L12 18zm-1-2.45V3.85l-4-1.4v11.7l4 1.4zm2 0l3-1V2.7l-3 1.15v11.7zM2 15.3l3-1.15V2.45l-3 1V15.3z"/></symbol><symbol viewBox="0 0 16 20" id="mark" xmlns="http://www.w3.org/2000/svg"><path d="M8.002 9.865c.497 0 .923-.177 1.276-.531.353-.354.53-.78.53-1.278s-.178-.923-.532-1.276a1.745 1.745 0 00-1.278-.53c-.497 0-.923.177-1.276.532-.353.354-.53.78-.53 1.277 0 .498.177.923.532 1.277.354.353.78.53 1.278.53zM8 17.514c1.956-1.752 3.454-3.432 4.491-5.04 1.038-1.608 1.557-3.017 1.557-4.226 0-1.823-.58-3.322-1.738-4.496C11.152 2.578 9.715 1.99 8 1.99c-1.715 0-3.152.588-4.31 1.762C2.53 4.926 1.951 6.425 1.951 8.248c0 1.209.519 2.618 1.557 4.226 1.037 1.608 2.535 3.288 4.491 5.04zm0 1.996c-2.517-2.181-4.404-4.21-5.662-6.089C1.081 11.543.452 9.82.452 8.248c0-2.308.746-4.176 2.24-5.605C4.183 1.214 5.953.5 8 .5s3.816.714 5.309 2.143c1.493 1.43 2.239 3.297 2.239 5.605 0 1.57-.629 3.295-1.886 5.173C12.404 15.3 10.517 17.33 8 19.51z"/></symbol><symbol viewBox="0 0 19 16" id="menu" xmlns="http://www.w3.org/2000/svg"><path d="M.5 1V0h18v2H.5V1zM.5 8V7h18v2H.5V8zM.5 15v-1h18v2H.5v-1z"/></symbol><symbol viewBox="0 0 14 14" id="mini-closer" xmlns="http://www.w3.org/2000/svg"><path fill-rule="evenodd" clip-rule="evenodd" d="M8.374 7L14 1.374 12.626 0 7 5.626 1.374 0 0 1.374 5.626 7 0 12.626 1.374 14 7 8.374 12.626 14 14 12.626 8.374 7z"/></symbol><symbol viewBox="0 0 18 18" id="mini-search" xmlns="http://www.w3.org/2000/svg"><path d="M16.6 18l-6.3-6.3A6.096 6.096 0 016.5 13c-1.817 0-3.354-.63-4.612-1.887C.629 9.854 0 8.317 0 6.5c0-1.817.63-3.354 1.887-4.612C3.146.629 4.683 0 6.5 0c1.817 0 3.354.63 4.613 1.887C12.37 3.146 13 4.683 13 6.5a6.096 6.096 0 01-1.3 3.8l6.3 6.3-1.4 1.4zM6.5 11c1.25 0 2.313-.438 3.188-1.313C10.562 8.813 11 7.75 11 6.5c0-1.25-.438-2.313-1.313-3.188C8.813 2.438 7.75 2 6.5 2c-1.25 0-2.313.438-3.188 1.313C2.438 4.186 2 5.25 2 6.5c0 1.25.438 2.313 1.313 3.188C4.186 10.562 5.25 11 6.5 11z"/></symbol><symbol viewBox="0 0 25 24" id="open_eye" xmlns="http://www.w3.org/2000/svg"><path d="M13.198 16.077c1.133 0 2.096-.397 2.887-1.19.792-.793 1.188-1.756 1.188-2.89 0-1.132-.397-2.095-1.19-2.886-.793-.792-1.756-1.188-2.89-1.188-1.132 0-2.095.397-2.886 1.19-.792.793-1.188 1.756-1.188 2.89 0 1.132.397 2.095 1.19 2.886.793.792 1.756 1.188 2.89 1.188zm-.002-1.377c-.75 0-1.387-.262-1.912-.787A2.604 2.604 0 0110.496 12c0-.75.263-1.387.788-1.912a2.604 2.604 0 011.912-.788c.75 0 1.388.262 1.913.787.525.526.787 1.163.787 1.913s-.262 1.387-.787 1.912a2.604 2.604 0 01-1.913.788zm0 4.3c-2.105 0-4.03-.562-5.776-1.685a12.573 12.573 0 01-4.18-4.432 1.758 1.758 0 01-.182-.434 1.753 1.753 0 01.182-1.332 12.573 12.573 0 014.18-4.432C9.166 5.562 11.091 5 13.196 5s4.03.562 5.776 1.685a12.572 12.572 0 014.18 4.432 1.753 1.753 0 010 1.765 12.572 12.572 0 01-4.18 4.433C17.227 18.438 15.302 19 13.196 19zm0-1.5a9.545 9.545 0 005.188-1.488A9.773 9.773 0 0021.996 12a9.772 9.772 0 00-3.612-4.013A9.544 9.544 0 0013.196 6.5 9.545 9.545 0 008.01 7.987 9.772 9.772 0 004.396 12a9.773 9.773 0 003.613 4.012 9.545 9.545 0 005.187 1.488z"/></symbol><symbol viewBox="0 0 24 24" id="person" xmlns="http://www.w3.org/2000/svg"><path fill-rule="evenodd" clip-rule="evenodd" d="M12 4c-1.963 0-3.553 1.567-3.553 3.5S10.037 11 12 11c1.963 0 3.553-1.567 3.553-3.5S13.963 4 12 4zM6.416 7.5C6.416 4.462 8.916 2 12 2c3.084 0 5.584 2.462 5.584 5.5S15.084 13 12 13c-3.084 0-5.584-2.462-5.584-5.5zM12 16a8.918 8.918 0 00-7.093 3.509c-.1.13-.177.231-.24.32a2.618 2.618 0 00-.106.152c.151.017.366.019.766.019h13.346c.4 0 .615-.002.766-.019a2.653 2.653 0 00-.105-.153 15.87 15.87 0 00-.241-.32A8.918 8.918 0 0012 16zm-8.713 2.303A10.96 10.96 0 0112 14a10.96 10.96 0 018.74 4.339c.172.224.357.465.489.697.16.28.278.605.27 1a1.998 1.998 0 01-.222.85c-.118.235-.3.491-.554.687-.338.262-.707.355-1.034.393a8.733 8.733 0 01-.97.034H5.281c-.342 0-.683 0-.97-.034-.327-.038-.696-.131-1.034-.393a2.028 2.028 0 01-.554-.687 1.998 1.998 0 01-.223-.85c-.007-.395.111-.72.271-1 .132-.233.317-.473.489-.697l.027-.036z"/></symbol><symbol viewBox="0 0 18 18" id="phone" xmlns="http://www.w3.org/2000/svg"><path d="M16.44 17.5c-1.884 0-3.778-.438-5.68-1.314-1.901-.877-3.649-2.113-5.242-3.71-1.593-1.595-2.827-3.343-3.704-5.241C.938 5.335.5 3.445.5 1.56A1.032 1.032 0 011.55.5h3.261c.253 0 .476.082.669.247.193.165.315.368.368.61L6.421 4.3c.04.273.032.508-.025.704-.056.196-.158.36-.304.494l-2.31 2.248c.372.68.797 1.325 1.275 1.932a19.06 19.06 0 001.55 1.74 17.268 17.268 0 003.753 2.842l2.244-2.264c.156-.163.346-.277.568-.342.223-.066.454-.082.693-.048l2.777.565c.253.067.459.196.619.387.16.19.239.407.239.65v3.242a1.032 1.032 0 01-1.06 1.05zM3.073 6.327l1.785-1.708a.178.178 0 00.062-.106.234.234 0 00-.005-.125l-.434-2.234a.206.206 0 00-.068-.116A.194.194 0 004.288 2H2.15a.13.13 0 00-.096.038.13.13 0 00-.039.097 12.792 12.792 0 001.058 4.192zm8.7 8.642c.663.31 1.354.545 2.074.709.72.163 1.393.26 2.018.291a.13.13 0 00.135-.134V13.73a.194.194 0 00-.039-.125.206.206 0 00-.115-.068l-2.1-.427a.158.158 0 00-.1-.004.246.246 0 00-.092.062l-1.781 1.8z"/></symbol><symbol viewBox="0 0 18 18" id="psychiatry" xmlns="http://www.w3.org/2000/svg"><path d="M8 18v-7.975a7.941 7.941 0 01-3.075-.613A7.956 7.956 0 01.6 5.075C.2 4.092 0 3.067 0 2V0h2a7.88 7.88 0 013.05.613c.983.408 1.85.987 2.6 1.737a7.62 7.62 0 011.287 1.7c.342.617.605 1.275.788 1.975.083-.117.175-.23.275-.338.1-.108.208-.22.325-.337a7.957 7.957 0 012.6-1.737A7.941 7.941 0 0116 3h2v2a7.942 7.942 0 01-.613 3.075 7.956 7.956 0 01-1.737 2.6 7.827 7.827 0 01-2.588 1.725c-.974.4-1.995.6-3.062.6v5H8zM8 8c0-.8-.154-1.563-.463-2.287a6.088 6.088 0 00-1.312-1.938 6.088 6.088 0 00-1.938-1.313A5.785 5.785 0 002 2c0 .8.15 1.567.45 2.3.3.733.733 1.383 1.3 1.95.567.567 1.217 1 1.95 1.3.733.3 1.5.45 2.3.45zm2 3a5.924 5.924 0 004.225-1.75 6.048 6.048 0 001.313-1.95C15.845 6.567 16 5.8 16 5c-.8 0-1.567.154-2.3.463a6.05 6.05 0 00-1.95 1.312A5.918 5.918 0 0010 11z"/></symbol><symbol viewBox="0 0 19 20" id="search" xmlns="http://www.w3.org/2000/svg"><path fill-rule="evenodd" clip-rule="evenodd" d="M8.496 15.819a6.823 6.823 0 100-13.645 6.823 6.823 0 000 13.645zm0 1.673A8.496 8.496 0 108.496.5a8.496 8.496 0 000 16.992z"/><path fill-rule="evenodd" clip-rule="evenodd" d="M17.817 19.5l-4.248-4.248 1.183-1.183L19 18.317 17.817 19.5z"/></symbol><symbol viewBox="0 0 24 24" id="trash" xmlns="http://www.w3.org/2000/svg"><path fill-rule="evenodd" clip-rule="evenodd" d="M8.608 4.704h6.784a4.575 4.575 0 00-.17-.223C14.623 3.74 13.64 3 12 3s-2.622.74-3.223 1.481c-.06.075-.116.149-.17.223zm9.08 0a6.861 6.861 0 00-.91-1.482C15.877 2.112 14.36 1 12 1 9.64 1 8.122 2.112 7.223 3.222a6.862 6.862 0 00-.911 1.482H2v2h1.941L5.37 23h13.26L20.06 6.704H22v-2h-4.312zm.363 2H5.95L7.202 21h9.596l1.253-14.296z"/></symbol><symbol viewBox="0 0 20 21" id="viber" xmlns="http://www.w3.org/2000/svg"><path fill-rule="evenodd" clip-rule="evenodd" d="M14.676.627a21.9 21.9 0 00-9.555 0l-.34.075a4.905 4.905 0 00-3.683 3.58 19.467 19.467 0 000 9.577 4.905 4.905 0 003.444 3.52l.465 2.776a.5.5 0 00.826.29l2.73-2.443a21.9 21.9 0 006.113-.487l.34-.075a4.905 4.905 0 003.684-3.58 19.47 19.47 0 000-9.577 4.905 4.905 0 00-3.685-3.58l-.34-.076zM5.965 4.201a.822.822 0 00-.537.106h-.014c-.375.22-.713.497-1.001.823-.24.277-.37.557-.404.827-.02.16-.006.322.04.475l.019.01c.27.793.622 1.556 1.052 2.274a13.374 13.374 0 002.03 2.775l.024.034.038.028.023.027.028.024a13.568 13.568 0 002.782 2.04c1.155.63 1.856.926 2.277 1.05v.006c.123.038.235.055.348.055a1.61 1.61 0 00.964-.414c.325-.288.6-.627.814-1.004v-.007c.2-.38.133-.738-.157-.98A12.12 12.12 0 0012.41 11c-.448-.244-.903-.097-1.087.15l-.393.495c-.202.246-.568.212-.568.212l-.01.006c-2.731-.697-3.46-3.462-3.46-3.462s-.034-.376.219-.568l.492-.396c.236-.192.4-.646.147-1.094a11.806 11.806 0 00-1.347-1.88.748.748 0 00-.44-.263l.002.001zM10.579 3a.5.5 0 000 1c1.265 0 2.315.413 3.146 1.205.427.433.76.946.978 1.508.219.563.319 1.164.293 1.766a.5.5 0 101 .042 5.36 5.36 0 00-.361-2.17 5.443 5.443 0 00-1.204-1.854l-.01-.01C13.39 3.501 12.085 3 10.579 3zm-.034 1.644a.5.5 0 000 1h.017c.912.065 1.576.37 2.04.868.478.514.725 1.153.706 1.943a.5.5 0 101 .023c.024-1.037-.31-1.932-.972-2.646V5.83c-.677-.726-1.606-1.11-2.724-1.185l-.017-.002-.05.001zm-.02 1.675a.5.5 0 10-.051.998c.418.022.685.148.853.317.169.17.295.443.318.87a.5.5 0 10.998-.053c-.032-.6-.22-1.13-.605-1.52-.387-.39-.914-.58-1.512-.612z"/></symbol><symbol viewBox="0 0 20 15" id="youtube" xmlns="http://www.w3.org/2000/svg"><path d="M8 10.984l5.19-3-5.19-3v6zm11.56-7.83c.13.47.22 1.1.28 1.9.07.8.1 1.49.1 2.09l.06.84c0 2.19-.16 3.8-.44 4.83-.25.9-.83 1.48-1.73 1.73-.47.13-1.33.22-2.65.28-1.3.07-2.49.1-3.59.1l-1.59.06c-4.19 0-6.8-.16-7.83-.44-.9-.25-1.48-.83-1.73-1.73-.13-.47-.22-1.1-.28-1.9-.07-.8-.1-1.49-.1-2.09L0 7.984c0-2.19.16-3.8.44-4.83.25-.9.83-1.48 1.73-1.73.47-.13 1.33-.22 2.65-.28 1.3-.07 2.49-.1 3.59-.1L10 .984c4.19 0 6.8.16 7.83.44.9.25 1.48.83 1.73 1.73z"/></symbol></svg>